<svg width="28" height="18" viewBox="0 0 28 18" fill="none" xmlns="http://www.w3.org/2000/svg">
<path opacity="0.4" d="M8.30372 10.7856L2.75488 11.2764C1.50962 11.2764 0.5 10.2569 0.5 8.99952C0.5 7.74213 1.50962 6.72267 2.75488 6.72267L8.30372 7.2134C9.28062 7.2134 10.0726 8.0131 10.0726 8.99952C10.0726 9.98758 9.28062 10.7856 8.30372 10.7856" fill="#757FEF"/>
<path d="M26.9345 10.6952C26.8478 10.7828 26.5238 11.1529 26.2195 11.4603C24.444 13.3852 19.8083 16.5328 17.3832 17.4961C17.015 17.6497 16.084 17.9769 15.5849 18C15.1087 18 14.6538 17.8893 14.2202 17.6712C13.6785 17.3655 13.2465 16.8831 13.0076 16.3147C12.8554 15.9214 12.6165 14.74 12.6165 14.7186C12.3793 13.4281 12.25 11.3297 12.25 9.00991C12.25 6.80246 12.3793 4.78998 12.574 3.47806C12.5953 3.45493 12.8342 1.98935 13.0944 1.48706C13.5705 0.568386 14.5016 0 15.4981 0H15.5849C16.2345 0.0214797 17.5992 0.591519 17.5992 0.611346C19.895 1.57463 24.4211 4.57022 26.2407 6.56123C26.2407 6.56123 26.7546 7.07343 26.9771 7.39233C27.324 7.85166 27.4975 8.42005 27.4975 8.98843C27.4975 9.62291 27.3027 10.2128 26.9345 10.6952" fill="#757FEF"/>
</svg>
