<svg width="303" height="59" viewBox="0 0 303 59" fill="none" xmlns="http://www.w3.org/2000/svg">
<path d="M0 0H288C296.284 0 303 6.71573 303 15V44C303 52.2843 296.284 59 288 59H15C6.71572 59 0 52.2843 0 44V0Z" fill="#F5F6FA"/>
<circle cx="44.5" cy="29.5" r="19.5" fill="#757FEF"/>
<rect x="38" y="24" width="5" height="12" fill="white"/>
<rect x="45" y="24" width="5" height="12" fill="white"/>
<rect x="74" y="24" width="2" height="11" fill="#757FEF"/>
<rect x="79" y="19" width="2" height="21" fill="#757FEF"/>
<rect x="84" y="14" width="2" height="31" fill="#757FEF"/>
<rect x="89" y="19" width="2" height="21" fill="#757FEF"/>
<rect x="94" y="24" width="2" height="11" fill="#757FEF"/>
<rect x="99" y="19" width="2" height="21" fill="#757FEF"/>
<rect x="104" y="24" width="2" height="11" fill="#757FEF"/>
<rect x="109" y="28" width="2" height="3" fill="#757FEF"/>
<rect x="114" y="23.5" width="2" height="12" fill="#757FEF"/>
<rect x="119" y="19" width="2" height="21" fill="#757FEF"/>
<rect x="124" y="14" width="2" height="31" fill="#757FEF"/>
<rect x="129" y="19" width="2" height="21" fill="#757FEF"/>
<rect x="134" y="24" width="2" height="11" fill="#D1D2D6"/>
<rect x="139" y="20" width="2" height="19" fill="#D1D2D6"/>
<rect x="144" y="24" width="2" height="11" fill="#D1D2D6"/>
<rect x="149" y="28.5" width="2" height="2" fill="#D1D2D6"/>
<rect x="154" y="24" width="2" height="11" fill="#D1D2D6"/>
<rect x="159" y="20" width="2" height="19" fill="#D1D2D6"/>
<rect x="164" y="14" width="2" height="31" fill="#D1D2D6"/>
<rect x="169" y="20" width="2" height="19" fill="#D1D2D6"/>
<rect x="174" y="24.5" width="2" height="10" fill="#D1D2D6"/>
<rect x="179" y="20" width="2" height="19" fill="#D1D2D6"/>
<rect x="184" y="24.5" width="2" height="10" fill="#D1D2D6"/>
<rect x="189" y="28.5" width="2" height="2" fill="#D1D2D6"/>
<rect x="194" y="25" width="2" height="9" fill="#D1D2D6"/>
<rect x="199" y="20" width="2" height="19" fill="#D1D2D6"/>
<rect x="204" y="14.5" width="2" height="30" fill="#D1D2D6"/>
<rect x="209" y="20" width="2" height="19" fill="#D1D2D6"/>
<rect x="214" y="25" width="2" height="9" fill="#D1D2D6"/>
<rect x="219" y="20" width="2" height="19" fill="#D1D2D6"/>
<rect x="224" y="24.5" width="2" height="10" fill="#D1D2D6"/>
<rect x="229" y="28.5" width="2" height="2" fill="#D1D2D6"/>
<path d="M246.266 35.5H245.08V27.9121C245.08 27.624 245.08 27.3774 245.08 27.1724C245.084 26.9624 245.089 26.772 245.094 26.6011C245.104 26.4253 245.116 26.2471 245.131 26.0664C244.979 26.2227 244.838 26.3569 244.706 26.4692C244.574 26.5767 244.411 26.7109 244.215 26.8721L242.992 27.8535L242.355 27.0259L245.255 24.792H246.266V35.5ZM250.683 34.7383C250.683 34.3965 250.766 34.1548 250.932 34.0132C251.098 33.8667 251.3 33.7935 251.54 33.7935C251.789 33.7935 251.999 33.8667 252.169 34.0132C252.34 34.1548 252.426 34.3965 252.426 34.7383C252.426 35.0752 252.34 35.3218 252.169 35.478C251.999 35.6294 251.789 35.7051 251.54 35.7051C251.3 35.7051 251.098 35.6294 250.932 35.478C250.766 35.3218 250.683 35.0752 250.683 34.7383ZM250.683 28.2417C250.683 27.8901 250.766 27.6436 250.932 27.502C251.098 27.3555 251.3 27.2822 251.54 27.2822C251.789 27.2822 251.999 27.3555 252.169 27.502C252.34 27.6436 252.426 27.8901 252.426 28.2417C252.426 28.5737 252.34 28.8154 252.169 28.9668C251.999 29.1182 251.789 29.1938 251.54 29.1938C251.3 29.1938 251.098 29.1182 250.932 28.9668C250.766 28.8154 250.683 28.5737 250.683 28.2417ZM261.281 35.5H254.264V34.4819L257.128 31.5742C257.66 31.0371 258.107 30.5586 258.468 30.1387C258.834 29.7188 259.113 29.3062 259.303 28.9009C259.494 28.4907 259.589 28.0415 259.589 27.5532C259.589 26.9478 259.408 26.4863 259.047 26.1689C258.69 25.8467 258.219 25.6855 257.633 25.6855C257.121 25.6855 256.667 25.7734 256.271 25.9492C255.875 26.125 255.47 26.374 255.055 26.6963L254.403 25.876C254.687 25.6367 254.994 25.4243 255.326 25.2388C255.663 25.0532 256.022 24.9067 256.403 24.7993C256.789 24.6919 257.199 24.6382 257.633 24.6382C258.292 24.6382 258.861 24.7529 259.34 24.9824C259.818 25.2119 260.187 25.5391 260.446 25.9639C260.709 26.3887 260.841 26.894 260.841 27.48C260.841 28.0464 260.729 28.5737 260.504 29.062C260.28 29.5454 259.965 30.0264 259.56 30.5049C259.154 30.9785 258.681 31.4814 258.139 32.0137L255.81 34.3354V34.3867H261.281V35.5ZM266.232 28.9521C266.959 28.9521 267.592 29.0767 268.129 29.3257C268.666 29.5698 269.081 29.9263 269.374 30.395C269.672 30.8638 269.821 31.4326 269.821 32.1016C269.821 32.834 269.662 33.4663 269.345 33.9985C269.027 34.5259 268.571 34.9336 267.975 35.2217C267.379 35.5049 266.667 35.6465 265.836 35.6465C265.28 35.6465 264.762 35.5977 264.284 35.5C263.805 35.4023 263.402 35.2559 263.075 35.0605V33.9033C263.432 34.1182 263.864 34.2891 264.372 34.416C264.879 34.543 265.373 34.6064 265.851 34.6064C266.393 34.6064 266.867 34.521 267.272 34.3501C267.682 34.1743 268 33.9106 268.224 33.5591C268.454 33.2026 268.568 32.7559 268.568 32.2188C268.568 31.5059 268.349 30.9565 267.909 30.5708C267.475 30.1802 266.786 29.9849 265.844 29.9849C265.541 29.9849 265.209 30.0093 264.848 30.0581C264.486 30.1069 264.188 30.1606 263.954 30.2192L263.339 29.8164L263.749 24.792H269.074V25.9053H264.789L264.518 29.1353C264.704 29.0962 264.943 29.0571 265.236 29.0181C265.529 28.9741 265.861 28.9521 266.232 28.9521Z" fill="#A9A9C8"/>
</svg>
