<svg width="96" height="96" viewBox="0 0 96 96" fill="none" xmlns="http://www.w3.org/2000/svg">
<circle cx="48" cy="48" r="48" fill="#3730A3"/>
<mask id="mask0_77_319" style="mask-type:alpha" maskUnits="userSpaceOnUse" x="0" y="0" width="96" height="96">
<circle cx="48" cy="48" r="48" fill="white"/>
</mask>
<g mask="url(#mask0_77_319)">
<mask id="path-3-inside-1_77_319" fill="white">
<path fill-rule="evenodd" clip-rule="evenodd" d="M86.9434 29.8868L33.5094 41.6604L19.8386 65.2137C20.4335 65.7447 20.8302 66.2262 20.8302 66.566C20.8302 67.9245 22.1887 73.3585 22.1887 73.3585L6.33962 89.2075L6.10097 88.8821L-4.0755 106.415L86.9434 144V29.8868Z"/>
</mask>
<path fill-rule="evenodd" clip-rule="evenodd" d="M86.9434 29.8868L33.5094 41.6604L19.8386 65.2137C20.4335 65.7447 20.8302 66.2262 20.8302 66.566C20.8302 67.9245 22.1887 73.3585 22.1887 73.3585L6.33962 89.2075L6.10097 88.8821L-4.0755 106.415L86.9434 144V29.8868Z" fill="#38BDF8"/>
<path d="M33.5094 41.6604L33.0791 39.7072L32.2208 39.8963L31.7797 40.6564L33.5094 41.6604ZM86.9434 29.8868H88.9434V27.3981L86.513 27.9336L86.9434 29.8868ZM19.8386 65.2137L18.1088 64.2097L17.2903 65.6199L18.5068 66.7058L19.8386 65.2137ZM22.1887 73.3585L23.6029 74.7727L24.4036 73.972L24.129 72.8734L22.1887 73.3585ZM6.33962 89.2075L4.72682 90.3903L6.10542 92.2702L7.75384 90.6218L6.33962 89.2075ZM6.10097 88.8821L7.71378 87.6994L5.90589 85.2341L4.37123 87.8781L6.10097 88.8821ZM-4.0755 106.415L-5.80525 105.411L-6.95399 107.39L-4.83885 108.264L-4.0755 106.415ZM86.9434 144L86.18 145.849L88.9434 146.99V144H86.9434ZM33.9398 43.6135L87.3737 31.8399L86.513 27.9336L33.0791 39.7072L33.9398 43.6135ZM21.5683 66.2177L35.2392 42.6643L31.7797 40.6564L18.1088 64.2097L21.5683 66.2177ZM18.5068 66.7058C18.627 66.8131 18.7264 66.9083 18.8059 66.9907C18.8868 67.0744 18.9363 67.1337 18.9629 67.1687C18.9927 67.2082 18.9735 67.1907 18.9414 67.1207C18.924 67.0829 18.8977 67.0184 18.8749 66.93C18.8521 66.8412 18.8302 66.7174 18.8302 66.566H22.8302C22.8302 65.7087 22.3795 65.0548 22.1521 64.7544C21.8676 64.3786 21.5131 64.0275 21.1704 63.7216L18.5068 66.7058ZM18.8302 66.566C18.8302 67.1128 18.9511 67.8785 19.0747 68.5582C19.2087 69.2951 19.3847 70.13 19.5571 70.9056C19.73 71.684 19.9026 72.4173 20.0316 72.955C20.0962 73.2242 20.1502 73.4452 20.188 73.5994C20.207 73.6765 20.2219 73.737 20.2322 73.7784C20.2373 73.7992 20.2413 73.8151 20.244 73.8261C20.2454 73.8316 20.2465 73.8358 20.2472 73.8387C20.2475 73.8402 20.2478 73.8413 20.248 73.8421C20.2481 73.8425 20.2482 73.8428 20.2483 73.8431C20.2483 73.8432 20.2483 73.8433 20.2484 73.8434C20.2484 73.8435 20.2484 73.8436 22.1887 73.3585C24.129 72.8734 24.129 72.8735 24.129 72.8735C24.129 72.8734 24.129 72.8734 24.129 72.8734C24.1289 72.8733 24.1289 72.8731 24.1288 72.8729C24.1287 72.8724 24.1285 72.8715 24.1282 72.8704C24.1276 72.8681 24.1267 72.8645 24.1255 72.8596C24.1231 72.8499 24.1195 72.8352 24.1146 72.8158C24.105 72.777 24.0908 72.7194 24.0726 72.6453C24.0362 72.497 23.9839 72.2829 23.9212 72.0215C23.7955 71.4978 23.6284 70.7877 23.4618 70.0378C23.2945 69.285 23.1309 68.5068 23.0102 67.8427C22.8791 67.1215 22.8302 66.6986 22.8302 66.566H18.8302ZM20.7745 71.9443L4.92541 87.7933L7.75384 90.6218L23.6029 74.7727L20.7745 71.9443ZM7.95243 88.0248L7.71378 87.6994L4.48817 90.0648L4.72682 90.3903L7.95243 88.0248ZM-2.34575 107.419L7.83072 89.8861L4.37123 87.8781L-5.80525 105.411L-2.34575 107.419ZM87.7067 142.151L-3.31215 104.566L-4.83885 108.264L86.18 145.849L87.7067 142.151ZM84.9434 29.8868V144H88.9434V29.8868H84.9434Z" fill="white" mask="url(#path-3-inside-1_77_319)"/>
<mask id="path-5-inside-2_77_319" fill="white">
<path fill-rule="evenodd" clip-rule="evenodd" d="M117.283 -18.1132H48V68.2115L67.4717 66.566L91.9245 91.0189C91.9245 91.0189 88.5988 93.833 86.3699 96H117.283V-18.1132Z"/>
</mask>
<path fill-rule="evenodd" clip-rule="evenodd" d="M117.283 -18.1132H48V68.2115L67.4717 66.566L91.9245 91.0189C91.9245 91.0189 88.5988 93.833 86.3699 96H117.283V-18.1132Z" fill="#757FEF"/>
<path d="M48 -18.1132V-20.1132H46V-18.1132H48ZM117.283 -18.1132H119.283V-20.1132H117.283V-18.1132ZM48 68.2115H46V70.3877L48.1684 70.2044L48 68.2115ZM67.4717 66.566L68.8859 65.1518L68.229 64.4949L67.3033 64.5731L67.4717 66.566ZM91.9245 91.0189L93.2164 92.5456L94.8757 91.1416L93.3387 89.6047L91.9245 91.0189ZM86.3699 96L84.9757 94.566L81.4437 98H86.3699V96ZM117.283 96V98H119.283V96H117.283ZM48 -16.1132H117.283V-20.1132H48V-16.1132ZM50 68.2115V-18.1132H46V68.2115H50ZM48.1684 70.2044L67.6401 68.5589L67.3033 64.5731L47.8316 66.2186L48.1684 70.2044ZM66.0575 67.9803L90.5103 92.4331L93.3387 89.6047L68.8859 65.1518L66.0575 67.9803ZM91.9245 91.0189C90.6326 89.4921 90.6326 89.4921 90.6325 89.4922C90.6325 89.4922 90.6324 89.4923 90.6323 89.4923C90.6322 89.4925 90.632 89.4926 90.6317 89.4929C90.6312 89.4933 90.6305 89.4939 90.6296 89.4946C90.6278 89.4962 90.6252 89.4984 90.6218 89.5013C90.6151 89.507 90.6052 89.5154 90.5923 89.5263C90.5666 89.5482 90.5289 89.5802 90.4803 89.6216C90.3832 89.7043 90.2425 89.8244 90.067 89.9752C89.7161 90.2765 89.2252 90.7008 88.6636 91.1937C87.5464 92.1745 86.1273 93.4464 84.9757 94.566L87.7641 97.434C88.8414 96.3865 90.1996 95.1679 91.3024 94.1999C91.8509 93.7184 92.3307 93.3037 92.6731 93.0097C92.8442 92.8627 92.9808 92.7461 93.0743 92.6665C93.121 92.6267 93.1569 92.5961 93.181 92.5757C93.193 92.5655 93.202 92.5578 93.208 92.5528C93.211 92.5502 93.2132 92.5484 93.2146 92.5472C93.2153 92.5466 93.2158 92.5462 93.2161 92.5459C93.2163 92.5458 93.2164 92.5457 93.2164 92.5456C93.2164 92.5456 93.2164 92.5456 93.2164 92.5456C93.2164 92.5456 93.2164 92.5456 91.9245 91.0189ZM117.283 94H86.3699V98H117.283V94ZM115.283 -18.1132V96H119.283V-18.1132H115.283Z" fill="white" mask="url(#path-5-inside-2_77_319)"/>
<circle cx="48" cy="48" r="37.1321" fill="white"/>
<path d="M43.0293 54.8574H40.623V59H36.4941V54.8574H27.9629V51.918L36.7266 39.0117H40.623V51.5762H43.0293V54.8574ZM36.4941 51.5762V48.1855C36.4941 47.8665 36.4987 47.4883 36.5078 47.0508C36.526 46.6133 36.5443 46.1758 36.5625 45.7383C36.5807 45.3008 36.599 44.9134 36.6172 44.5762C36.6445 44.2298 36.6628 43.9883 36.6719 43.8516H36.5625C36.3893 44.2253 36.207 44.5898 36.0156 44.9453C35.8242 45.2917 35.6009 45.6562 35.3457 46.0391L31.6816 51.5762H36.4941ZM45.1074 57.0449C45.1074 56.1882 45.3398 55.5866 45.8047 55.2402C46.2786 54.8939 46.8483 54.7207 47.5137 54.7207C48.1608 54.7207 48.7168 54.8939 49.1816 55.2402C49.6556 55.5866 49.8926 56.1882 49.8926 57.0449C49.8926 57.8652 49.6556 58.4577 49.1816 58.8223C48.7168 59.1868 48.1608 59.3691 47.5137 59.3691C46.8483 59.3691 46.2786 59.1868 45.8047 58.8223C45.3398 58.4577 45.1074 57.8652 45.1074 57.0449ZM59.8867 46.2305C61.1081 46.2305 62.1927 46.4629 63.1406 46.9277C64.0977 47.3926 64.8496 48.0762 65.3965 48.9785C65.9434 49.8809 66.2168 50.9928 66.2168 52.3145C66.2168 53.7546 65.916 54.9987 65.3145 56.0469C64.722 57.0859 63.8333 57.8835 62.6484 58.4395C61.4727 58.9954 60.0052 59.2734 58.2461 59.2734C57.1979 59.2734 56.209 59.1823 55.2793 59C54.3587 58.8268 53.5521 58.5579 52.8594 58.1934V54.543C53.5521 54.9076 54.3815 55.2174 55.3477 55.4727C56.3229 55.7188 57.2389 55.8418 58.0957 55.8418C58.9342 55.8418 59.6406 55.7324 60.2148 55.5137C60.7891 55.2858 61.222 54.9395 61.5137 54.4746C61.8145 54.0007 61.9648 53.3991 61.9648 52.6699C61.9648 51.6947 61.6367 50.9473 60.9805 50.4277C60.3242 49.9082 59.3171 49.6484 57.959 49.6484C57.4395 49.6484 56.8971 49.6986 56.332 49.7988C55.776 49.8991 55.3112 49.9993 54.9375 50.0996L53.2559 49.1973L54.0078 39.0117H64.8496V42.5938H57.7129L57.3438 46.5176C57.6536 46.4538 57.9909 46.39 58.3555 46.3262C58.7201 46.2624 59.2305 46.2305 59.8867 46.2305Z" fill="#260944"/>
</g>
</svg>
