<svg width="1035" height="375" viewBox="0 0 1035 375" fill="none" xmlns="http://www.w3.org/2000/svg">
<rect width="1035" height="375" rx="10" fill="white"/>
<line x1="51" y1="285.5" x2="1010" y2="285.5" stroke="#EDEFF5" stroke-dasharray="5 5"/>
<path d="M23.8486 284.889C24.5277 284.889 25.1178 285.005 25.6191 285.237C26.1204 285.465 26.5078 285.798 26.7812 286.235C27.0592 286.673 27.1982 287.204 27.1982 287.828C27.1982 288.512 27.0501 289.102 26.7539 289.599C26.4577 290.091 26.0316 290.471 25.4756 290.74C24.9196 291.005 24.2542 291.137 23.4795 291.137C22.96 291.137 22.4769 291.091 22.0303 291C21.5837 290.909 21.2077 290.772 20.9023 290.59V289.51C21.235 289.71 21.6383 289.87 22.1123 289.988C22.5863 290.107 23.0465 290.166 23.4932 290.166C23.999 290.166 24.4411 290.086 24.8193 289.927C25.2021 289.763 25.4984 289.517 25.708 289.188C25.9222 288.856 26.0293 288.439 26.0293 287.938C26.0293 287.272 25.8242 286.759 25.4141 286.399C25.0085 286.035 24.3659 285.853 23.4863 285.853C23.2038 285.853 22.8939 285.875 22.5566 285.921C22.2194 285.966 21.9414 286.017 21.7227 286.071L21.1484 285.695L21.5312 281.006H26.501V282.045H22.502L22.249 285.06C22.4222 285.023 22.6455 284.987 22.9189 284.95C23.1924 284.909 23.5023 284.889 23.8486 284.889Z" fill="#A9A9C8"/>
<line x1="51" y1="242.5" x2="1010" y2="242.5" stroke="#EDEFF5" stroke-dasharray="5 5"/>
<path d="M24.915 249H23.8076V241.918C23.8076 241.649 23.8076 241.419 23.8076 241.228C23.8122 241.032 23.8167 240.854 23.8213 240.694C23.8304 240.53 23.8418 240.364 23.8555 240.195C23.7142 240.341 23.582 240.466 23.459 240.571C23.3359 240.672 23.1833 240.797 23.001 240.947L21.8594 241.863L21.2646 241.091L23.9717 239.006H24.915V249ZM35.3057 243.989C35.3057 244.8 35.2441 245.525 35.1211 246.163C34.998 246.801 34.8044 247.341 34.54 247.783C34.2757 248.225 33.9339 248.562 33.5146 248.795C33.0954 249.023 32.5918 249.137 32.0039 249.137C31.2611 249.137 30.6458 248.934 30.1582 248.528C29.6751 248.123 29.3128 247.537 29.0713 246.771C28.8343 246.001 28.7158 245.074 28.7158 243.989C28.7158 242.923 28.8229 242.007 29.0371 241.241C29.2559 240.471 29.6068 239.881 30.0898 239.471C30.5729 239.056 31.2109 238.849 32.0039 238.849C32.7559 238.849 33.3757 239.054 33.8633 239.464C34.3509 239.869 34.7132 240.457 34.9502 241.228C35.1872 241.993 35.3057 242.914 35.3057 243.989ZM29.8574 243.989C29.8574 244.919 29.9281 245.694 30.0693 246.313C30.2106 246.933 30.4385 247.398 30.7529 247.708C31.0719 248.013 31.4889 248.166 32.0039 248.166C32.5189 248.166 32.9336 248.013 33.248 247.708C33.5671 247.403 33.7972 246.94 33.9385 246.32C34.0843 245.701 34.1572 244.924 34.1572 243.989C34.1572 243.073 34.0866 242.308 33.9453 241.692C33.804 241.073 33.5762 240.608 33.2617 240.298C32.9473 239.983 32.528 239.826 32.0039 239.826C31.4798 239.826 31.0605 239.983 30.7461 240.298C30.4316 240.608 30.2038 241.073 30.0625 241.692C29.9258 242.308 29.8574 243.073 29.8574 243.989Z" fill="#A9A9C8"/>
<line x1="51" y1="200.5" x2="1010" y2="200.5" stroke="#EDEFF5" stroke-dasharray="5 5"/>
<path d="M24.915 207H23.8076V199.918C23.8076 199.649 23.8076 199.419 23.8076 199.228C23.8122 199.032 23.8167 198.854 23.8213 198.694C23.8304 198.53 23.8418 198.364 23.8555 198.195C23.7142 198.341 23.582 198.466 23.459 198.571C23.3359 198.672 23.1833 198.797 23.001 198.947L21.8594 199.863L21.2646 199.091L23.9717 197.006H24.915V207ZM31.8604 200.889C32.5394 200.889 33.1296 201.005 33.6309 201.237C34.1322 201.465 34.5195 201.798 34.793 202.235C35.071 202.673 35.21 203.204 35.21 203.828C35.21 204.512 35.0618 205.102 34.7656 205.599C34.4694 206.091 34.0433 206.471 33.4873 206.74C32.9313 207.005 32.266 207.137 31.4912 207.137C30.9717 207.137 30.4886 207.091 30.042 207C29.5954 206.909 29.2194 206.772 28.9141 206.59V205.51C29.2467 205.71 29.6501 205.87 30.124 205.988C30.598 206.107 31.0583 206.166 31.5049 206.166C32.0107 206.166 32.4528 206.086 32.8311 205.927C33.2139 205.763 33.5101 205.517 33.7197 205.188C33.9339 204.856 34.041 204.439 34.041 203.938C34.041 203.272 33.8359 202.759 33.4258 202.399C33.0202 202.035 32.3776 201.853 31.498 201.853C31.2155 201.853 30.9056 201.875 30.5684 201.921C30.2311 201.966 29.9531 202.017 29.7344 202.071L29.1602 201.695L29.543 197.006H34.5127V198.045H30.5137L30.2607 201.06C30.4339 201.023 30.6572 200.987 30.9307 200.95C31.2041 200.909 31.514 200.889 31.8604 200.889Z" fill="#A9A9C8"/>
<line x1="51" y1="158.5" x2="1010" y2="158.5" stroke="#EDEFF5" stroke-dasharray="5 5"/>
<path d="M27.2393 165H20.6904V164.05L23.3633 161.336C23.86 160.835 24.277 160.388 24.6143 159.996C24.9561 159.604 25.2158 159.219 25.3936 158.841C25.5713 158.458 25.6602 158.039 25.6602 157.583C25.6602 157.018 25.4915 156.587 25.1543 156.291C24.8216 155.99 24.3818 155.84 23.835 155.84C23.3564 155.84 22.9326 155.922 22.5635 156.086C22.1943 156.25 21.8161 156.482 21.4287 156.783L20.8203 156.018C21.0846 155.794 21.3717 155.596 21.6816 155.423C21.9961 155.25 22.3311 155.113 22.6865 155.013C23.0465 154.912 23.4294 154.862 23.835 154.862C24.4502 154.862 24.9811 154.969 25.4277 155.184C25.8743 155.398 26.2184 155.703 26.46 156.1C26.7061 156.496 26.8291 156.968 26.8291 157.515C26.8291 158.043 26.7243 158.535 26.5146 158.991C26.305 159.442 26.0111 159.891 25.6328 160.338C25.2546 160.78 24.8125 161.249 24.3066 161.746L22.1328 163.913V163.961H27.2393V165ZM35.3057 159.989C35.3057 160.8 35.2441 161.525 35.1211 162.163C34.998 162.801 34.8044 163.341 34.54 163.783C34.2757 164.225 33.9339 164.562 33.5146 164.795C33.0954 165.023 32.5918 165.137 32.0039 165.137C31.2611 165.137 30.6458 164.934 30.1582 164.528C29.6751 164.123 29.3128 163.537 29.0713 162.771C28.8343 162.001 28.7158 161.074 28.7158 159.989C28.7158 158.923 28.8229 158.007 29.0371 157.241C29.2559 156.471 29.6068 155.881 30.0898 155.471C30.5729 155.056 31.2109 154.849 32.0039 154.849C32.7559 154.849 33.3757 155.054 33.8633 155.464C34.3509 155.869 34.7132 156.457 34.9502 157.228C35.1872 157.993 35.3057 158.914 35.3057 159.989ZM29.8574 159.989C29.8574 160.919 29.9281 161.694 30.0693 162.313C30.2106 162.933 30.4385 163.398 30.7529 163.708C31.0719 164.013 31.4889 164.166 32.0039 164.166C32.5189 164.166 32.9336 164.013 33.248 163.708C33.5671 163.403 33.7972 162.94 33.9385 162.32C34.0843 161.701 34.1572 160.924 34.1572 159.989C34.1572 159.073 34.0866 158.308 33.9453 157.692C33.804 157.073 33.5762 156.608 33.2617 156.298C32.9473 155.983 32.528 155.826 32.0039 155.826C31.4798 155.826 31.0605 155.983 30.7461 156.298C30.4316 156.608 30.2038 157.073 30.0625 157.692C29.9258 158.308 29.8574 159.073 29.8574 159.989Z" fill="#A9A9C8"/>
<line x1="51" y1="116.5" x2="1010" y2="116.5" stroke="#EDEFF5" stroke-dasharray="5 5"/>
<path d="M27.2393 123H20.6904V122.05L23.3633 119.336C23.86 118.835 24.277 118.388 24.6143 117.996C24.9561 117.604 25.2158 117.219 25.3936 116.841C25.5713 116.458 25.6602 116.039 25.6602 115.583C25.6602 115.018 25.4915 114.587 25.1543 114.291C24.8216 113.99 24.3818 113.84 23.835 113.84C23.3564 113.84 22.9326 113.922 22.5635 114.086C22.1943 114.25 21.8161 114.482 21.4287 114.783L20.8203 114.018C21.0846 113.794 21.3717 113.596 21.6816 113.423C21.9961 113.25 22.3311 113.113 22.6865 113.013C23.0465 112.912 23.4294 112.862 23.835 112.862C24.4502 112.862 24.9811 112.969 25.4277 113.184C25.8743 113.398 26.2184 113.703 26.46 114.1C26.7061 114.496 26.8291 114.968 26.8291 115.515C26.8291 116.043 26.7243 116.535 26.5146 116.991C26.305 117.442 26.0111 117.891 25.6328 118.338C25.2546 118.78 24.8125 119.249 24.3066 119.746L22.1328 121.913V121.961H27.2393V123ZM31.8604 116.889C32.5394 116.889 33.1296 117.005 33.6309 117.237C34.1322 117.465 34.5195 117.798 34.793 118.235C35.071 118.673 35.21 119.204 35.21 119.828C35.21 120.512 35.0618 121.102 34.7656 121.599C34.4694 122.091 34.0433 122.471 33.4873 122.74C32.9313 123.005 32.266 123.137 31.4912 123.137C30.9717 123.137 30.4886 123.091 30.042 123C29.5954 122.909 29.2194 122.772 28.9141 122.59V121.51C29.2467 121.71 29.6501 121.87 30.124 121.988C30.598 122.107 31.0583 122.166 31.5049 122.166C32.0107 122.166 32.4528 122.086 32.8311 121.927C33.2139 121.763 33.5101 121.517 33.7197 121.188C33.9339 120.856 34.041 120.439 34.041 119.938C34.041 119.272 33.8359 118.759 33.4258 118.399C33.0202 118.035 32.3776 117.853 31.498 117.853C31.2155 117.853 30.9056 117.875 30.5684 117.921C30.2311 117.966 29.9531 118.017 29.7344 118.071L29.1602 117.695L29.543 113.006H34.5127V114.045H30.5137L30.2607 117.06C30.4339 117.023 30.6572 116.987 30.9307 116.95C31.2041 116.909 31.514 116.889 31.8604 116.889Z" fill="#A9A9C8"/>
<path d="M72.9248 343.632C72.6969 343.632 72.4964 343.616 72.3232 343.584C72.1501 343.552 72.002 343.509 71.8789 343.454V342.463C72.0247 342.508 72.182 342.543 72.3506 342.565C72.5192 342.593 72.7015 342.606 72.8975 342.606C73.1527 342.606 73.3874 342.556 73.6016 342.456C73.8158 342.356 73.9867 342.185 74.1143 341.943C74.2419 341.702 74.3057 341.369 74.3057 340.945V331.006H75.4746V340.856C75.4746 341.481 75.3698 341.998 75.1602 342.408C74.9551 342.818 74.6611 343.124 74.2783 343.324C73.9001 343.529 73.4489 343.632 72.9248 343.632ZM80.7588 333.385C81.652 333.385 82.3151 333.585 82.748 333.986C83.181 334.387 83.3975 335.028 83.3975 335.907V341H82.5703L82.3516 339.893H82.2969C82.0872 340.166 81.8685 340.396 81.6406 340.583C81.4128 340.765 81.1484 340.904 80.8477 341C80.5514 341.091 80.1868 341.137 79.7539 341.137C79.2982 341.137 78.8926 341.057 78.5371 340.897C78.1862 340.738 77.9082 340.496 77.7031 340.173C77.5026 339.849 77.4023 339.439 77.4023 338.942C77.4023 338.195 77.6986 337.621 78.291 337.22C78.8835 336.819 79.7858 336.6 80.998 336.563L82.29 336.509V336.051C82.29 335.404 82.151 334.95 81.873 334.69C81.5951 334.431 81.2031 334.301 80.6973 334.301C80.3053 334.301 79.9316 334.358 79.5762 334.472C79.2207 334.586 78.8835 334.72 78.5645 334.875L78.2158 334.014C78.5531 333.84 78.9404 333.692 79.3779 333.569C79.8154 333.446 80.2757 333.385 80.7588 333.385ZM82.2764 337.309L81.1348 337.356C80.2005 337.393 79.542 337.546 79.1592 337.814C78.7764 338.083 78.585 338.464 78.585 338.956C78.585 339.384 78.7148 339.701 78.9746 339.906C79.2344 340.111 79.5785 340.214 80.0068 340.214C80.6722 340.214 81.2168 340.029 81.6406 339.66C82.0645 339.291 82.2764 338.737 82.2764 337.999V337.309ZM89.2832 333.371C90.1719 333.371 90.8441 333.59 91.2998 334.027C91.7555 334.46 91.9834 335.158 91.9834 336.119V341H90.8623V336.194C90.8623 335.57 90.7188 335.103 90.4316 334.793C90.1491 334.483 89.7139 334.328 89.126 334.328C88.2965 334.328 87.7132 334.563 87.376 335.032C87.0387 335.502 86.8701 336.183 86.8701 337.076V341H85.7354V333.508H86.6514L86.8223 334.588H86.8838C87.0433 334.324 87.2461 334.103 87.4922 333.925C87.7383 333.743 88.014 333.606 88.3193 333.515C88.6247 333.419 88.946 333.371 89.2832 333.371Z" fill="#A9A9C8"/>
<rect x="68" y="143" width="5" height="169" rx="2.5" fill="#757FEF"/>
<rect x="81" y="173" width="5" height="139" rx="2.5" fill="#2DB6F5"/>
<rect x="94" y="257" width="5" height="55" rx="2.5" fill="#EE368C"/>
<path d="M179.529 341H178.367V331.006H183.932V332.031H179.529V335.695H183.665V336.714H179.529V341ZM188.313 333.371C188.951 333.371 189.498 333.512 189.954 333.795C190.41 334.077 190.758 334.474 191 334.984C191.242 335.49 191.362 336.083 191.362 336.762V337.466H186.188C186.201 338.345 186.42 339.015 186.844 339.476C187.268 339.936 187.865 340.166 188.635 340.166C189.109 340.166 189.528 340.123 189.893 340.036C190.257 339.95 190.635 339.822 191.027 339.653V340.651C190.649 340.82 190.273 340.943 189.899 341.021C189.53 341.098 189.093 341.137 188.587 341.137C187.867 341.137 187.238 340.991 186.7 340.699C186.167 340.403 185.752 339.97 185.456 339.4C185.16 338.831 185.012 338.133 185.012 337.309C185.012 336.502 185.146 335.805 185.415 335.217C185.688 334.624 186.071 334.169 186.563 333.85C187.06 333.531 187.644 333.371 188.313 333.371ZM188.3 334.301C187.694 334.301 187.211 334.499 186.851 334.896C186.491 335.292 186.276 335.846 186.208 336.557H190.173C190.168 336.11 190.098 335.718 189.961 335.381C189.829 335.039 189.626 334.775 189.353 334.588C189.079 334.396 188.728 334.301 188.3 334.301ZM194.425 330.363V333.022C194.425 333.328 194.416 333.624 194.397 333.911C194.384 334.198 194.372 334.422 194.363 334.581H194.425C194.63 334.244 194.926 333.959 195.313 333.727C195.701 333.494 196.195 333.378 196.797 333.378C197.736 333.378 198.483 333.704 199.039 334.355C199.6 335.003 199.88 335.966 199.88 337.247C199.88 338.09 199.752 338.801 199.497 339.38C199.242 339.959 198.882 340.396 198.417 340.692C197.952 340.989 197.403 341.137 196.77 341.137C196.177 341.137 195.689 341.027 195.307 340.809C194.928 340.585 194.637 340.314 194.432 339.995H194.343L194.11 341H193.29V330.363H194.425ZM196.612 334.328C196.07 334.328 195.639 334.435 195.32 334.649C195.001 334.859 194.771 335.178 194.63 335.606C194.493 336.03 194.425 336.568 194.425 337.22V337.281C194.425 338.225 194.582 338.947 194.896 339.448C195.211 339.945 195.783 340.193 196.612 340.193C197.31 340.193 197.831 339.938 198.178 339.428C198.529 338.917 198.704 338.188 198.704 337.24C198.704 336.274 198.531 335.547 198.185 335.06C197.843 334.572 197.319 334.328 196.612 334.328Z" fill="#A9A9C8"/>
<rect x="180" y="194" width="5" height="118" rx="2.5" fill="#757FEF"/>
<rect x="193" y="220" width="5" height="92" rx="2.5" fill="#2DB6F5"/>
<rect x="206" y="271" width="5" height="41" rx="2.5" fill="#EE368C"/>
<path d="M303.213 341L299.856 332.154H299.802C299.82 332.341 299.836 332.569 299.85 332.838C299.863 333.107 299.875 333.401 299.884 333.72C299.893 334.034 299.897 334.355 299.897 334.684V341H298.817V331.006H300.54L303.705 339.318H303.753L306.966 331.006H308.675V341H307.526V334.602C307.526 334.305 307.531 334.009 307.54 333.713C307.549 333.412 307.561 333.13 307.574 332.865C307.588 332.596 307.602 332.364 307.615 332.168H307.561L304.163 341H303.213ZM314.041 333.385C314.934 333.385 315.597 333.585 316.03 333.986C316.463 334.387 316.68 335.028 316.68 335.907V341H315.853L315.634 339.893H315.579C315.369 340.166 315.151 340.396 314.923 340.583C314.695 340.765 314.431 340.904 314.13 341C313.834 341.091 313.469 341.137 313.036 341.137C312.58 341.137 312.175 341.057 311.819 340.897C311.468 340.738 311.19 340.496 310.985 340.173C310.785 339.849 310.685 339.439 310.685 338.942C310.685 338.195 310.981 337.621 311.573 337.22C312.166 336.819 313.068 336.6 314.28 336.563L315.572 336.509V336.051C315.572 335.404 315.433 334.95 315.155 334.69C314.877 334.431 314.485 334.301 313.979 334.301C313.588 334.301 313.214 334.358 312.858 334.472C312.503 334.586 312.166 334.72 311.847 334.875L311.498 334.014C311.835 333.84 312.223 333.692 312.66 333.569C313.098 333.446 313.558 333.385 314.041 333.385ZM315.559 337.309L314.417 337.356C313.483 337.393 312.824 337.546 312.441 337.814C312.059 338.083 311.867 338.464 311.867 338.956C311.867 339.384 311.997 339.701 312.257 339.906C312.517 340.111 312.861 340.214 313.289 340.214C313.954 340.214 314.499 340.029 314.923 339.66C315.347 339.291 315.559 338.737 315.559 337.999V337.309ZM322.422 333.371C322.572 333.371 322.729 333.38 322.894 333.398C323.058 333.412 323.203 333.433 323.331 333.46L323.188 334.513C323.064 334.481 322.928 334.456 322.777 334.438C322.627 334.419 322.486 334.41 322.354 334.41C322.053 334.41 321.768 334.472 321.499 334.595C321.235 334.713 321.002 334.886 320.802 335.114C320.601 335.338 320.444 335.609 320.33 335.928C320.216 336.242 320.159 336.593 320.159 336.98V341H319.018V333.508H319.961L320.084 334.889H320.132C320.287 334.611 320.474 334.358 320.692 334.13C320.911 333.897 321.164 333.713 321.451 333.576C321.743 333.439 322.066 333.371 322.422 333.371Z" fill="#A9A9C8"/>
<rect x="295" y="117" width="5" height="195" rx="2.5" fill="#757FEF"/>
<rect x="308" y="153" width="5" height="159" rx="2.5" fill="#2DB6F5"/>
<rect x="321" y="280" width="5" height="32" rx="2.5" fill="#EE368C"/>
<path d="M420.636 341L419.405 337.828H415.399L414.176 341H413L416.91 330.965H417.956L421.839 341H420.636ZM419.057 336.796L417.888 333.645C417.86 333.562 417.815 333.428 417.751 333.241C417.692 333.054 417.63 332.861 417.566 332.66C417.503 332.46 417.45 332.298 417.409 332.175C417.364 332.362 417.313 332.549 417.259 332.735C417.209 332.918 417.159 333.089 417.108 333.248C417.058 333.403 417.015 333.535 416.979 333.645L415.789 336.796H419.057ZM426.716 333.371C427.65 333.371 428.396 333.692 428.952 334.335C429.508 334.978 429.786 335.944 429.786 337.233C429.786 338.086 429.658 338.801 429.403 339.38C429.147 339.959 428.787 340.396 428.323 340.692C427.862 340.989 427.318 341.137 426.689 341.137C426.292 341.137 425.944 341.084 425.643 340.979C425.342 340.875 425.085 340.733 424.87 340.556C424.656 340.378 424.479 340.184 424.337 339.975H424.255C424.269 340.152 424.285 340.367 424.303 340.617C424.326 340.868 424.337 341.087 424.337 341.273V344.35H423.196V333.508H424.132L424.283 334.615H424.337C424.483 334.387 424.661 334.18 424.87 333.993C425.08 333.802 425.335 333.651 425.636 333.542C425.941 333.428 426.301 333.371 426.716 333.371ZM426.518 334.328C425.998 334.328 425.579 334.428 425.26 334.629C424.946 334.829 424.716 335.13 424.57 335.531C424.424 335.928 424.346 336.427 424.337 337.028V337.247C424.337 337.881 424.406 338.416 424.542 338.854C424.684 339.291 424.914 339.624 425.233 339.852C425.556 340.079 425.989 340.193 426.532 340.193C426.996 340.193 427.384 340.068 427.694 339.817C428.004 339.567 428.234 339.218 428.384 338.771C428.539 338.32 428.617 337.803 428.617 337.22C428.617 336.336 428.443 335.634 428.097 335.114C427.755 334.59 427.229 334.328 426.518 334.328ZM435.312 333.371C435.463 333.371 435.62 333.38 435.784 333.398C435.948 333.412 436.094 333.433 436.221 333.46L436.078 334.513C435.955 334.481 435.818 334.456 435.668 334.438C435.517 334.419 435.376 334.41 435.244 334.41C434.943 334.41 434.658 334.472 434.389 334.595C434.125 334.713 433.893 334.886 433.692 335.114C433.492 335.338 433.334 335.609 433.22 335.928C433.106 336.242 433.05 336.593 433.05 336.98V341H431.908V333.508H432.851L432.974 334.889H433.022C433.177 334.611 433.364 334.358 433.583 334.13C433.801 333.897 434.054 333.713 434.342 333.576C434.633 333.439 434.957 333.371 435.312 333.371Z" fill="#A9A9C8"/>
<rect x="409" y="212" width="5" height="100" rx="2.5" fill="#757FEF"/>
<rect x="422" y="224" width="5" height="88" rx="2.5" fill="#2DB6F5"/>
<rect x="435" y="269" width="5" height="43" rx="2.5" fill="#EE368C"/>
<path d="M529.763 341L526.406 332.154H526.352C526.37 332.341 526.386 332.569 526.399 332.838C526.413 333.107 526.424 333.401 526.434 333.72C526.443 334.034 526.447 334.355 526.447 334.684V341H525.367V331.006H527.09L530.255 339.318H530.303L533.516 331.006H535.225V341H534.076V334.602C534.076 334.305 534.081 334.009 534.09 333.713C534.099 333.412 534.11 333.13 534.124 332.865C534.138 332.596 534.151 332.364 534.165 332.168H534.11L530.713 341H529.763ZM540.591 333.385C541.484 333.385 542.147 333.585 542.58 333.986C543.013 334.387 543.229 335.028 543.229 335.907V341H542.402L542.184 339.893H542.129C541.919 340.166 541.701 340.396 541.473 340.583C541.245 340.765 540.98 340.904 540.68 341C540.383 341.091 540.019 341.137 539.586 341.137C539.13 341.137 538.725 341.057 538.369 340.897C538.018 340.738 537.74 340.496 537.535 340.173C537.335 339.849 537.234 339.439 537.234 338.942C537.234 338.195 537.531 337.621 538.123 337.22C538.715 336.819 539.618 336.6 540.83 336.563L542.122 336.509V336.051C542.122 335.404 541.983 334.95 541.705 334.69C541.427 334.431 541.035 334.301 540.529 334.301C540.137 334.301 539.764 334.358 539.408 334.472C539.053 334.586 538.715 334.72 538.396 334.875L538.048 334.014C538.385 333.84 538.772 333.692 539.21 333.569C539.647 333.446 540.108 333.385 540.591 333.385ZM542.108 337.309L540.967 337.356C540.033 337.393 539.374 337.546 538.991 337.814C538.608 338.083 538.417 338.464 538.417 338.956C538.417 339.384 538.547 339.701 538.807 339.906C539.066 340.111 539.41 340.214 539.839 340.214C540.504 340.214 541.049 340.029 541.473 339.66C541.896 339.291 542.108 338.737 542.108 337.999V337.309ZM544.385 333.508H545.602L547.256 337.855C547.352 338.111 547.44 338.357 547.522 338.594C547.604 338.826 547.677 339.049 547.741 339.264C547.805 339.478 547.855 339.685 547.892 339.886H547.939C548.003 339.658 548.094 339.359 548.213 338.99C548.331 338.617 548.459 338.236 548.596 337.849L550.161 333.508H551.385L548.124 342.101C547.951 342.561 547.748 342.962 547.516 343.304C547.288 343.646 547.01 343.908 546.682 344.09C546.354 344.277 545.957 344.37 545.492 344.37C545.278 344.37 545.089 344.356 544.925 344.329C544.761 344.306 544.619 344.279 544.501 344.247V343.338C544.601 343.361 544.722 343.381 544.863 343.399C545.009 343.418 545.16 343.427 545.314 343.427C545.597 343.427 545.841 343.372 546.046 343.263C546.256 343.158 546.436 343.003 546.586 342.798C546.736 342.593 546.866 342.349 546.976 342.066L547.386 341.014L544.385 333.508Z" fill="#A9A9C8"/>
<rect x="523" y="173" width="5" height="139" rx="2.5" fill="#757FEF"/>
<rect x="536" y="196" width="5" height="116" rx="2.5" fill="#2DB6F5"/>
<rect x="549" y="257" width="5" height="55" rx="2.5" fill="#EE368C"/>
<path d="M641.925 343.632C641.697 343.632 641.496 343.616 641.323 343.584C641.15 343.552 641.002 343.509 640.879 343.454V342.463C641.025 342.508 641.182 342.543 641.351 342.565C641.519 342.593 641.701 342.606 641.897 342.606C642.153 342.606 642.387 342.556 642.602 342.456C642.816 342.356 642.987 342.185 643.114 341.943C643.242 341.702 643.306 341.369 643.306 340.945V331.006H644.475V340.856C644.475 341.481 644.37 341.998 644.16 342.408C643.955 342.818 643.661 343.124 643.278 343.324C642.9 343.529 642.449 343.632 641.925 343.632ZM653.143 333.508V341H652.213L652.049 339.947H651.987C651.832 340.207 651.632 340.426 651.386 340.604C651.14 340.781 650.862 340.913 650.552 341C650.246 341.091 649.921 341.137 649.574 341.137C648.982 341.137 648.485 341.041 648.084 340.85C647.683 340.658 647.38 340.362 647.175 339.961C646.974 339.56 646.874 339.045 646.874 338.416V333.508H648.022V338.334C648.022 338.958 648.164 339.425 648.446 339.735C648.729 340.041 649.16 340.193 649.738 340.193C650.294 340.193 650.736 340.089 651.064 339.879C651.397 339.669 651.636 339.362 651.782 338.956C651.928 338.546 652.001 338.045 652.001 337.452V333.508H653.143ZM659.09 333.371C659.979 333.371 660.651 333.59 661.106 334.027C661.562 334.46 661.79 335.158 661.79 336.119V341H660.669V336.194C660.669 335.57 660.525 335.103 660.238 334.793C659.956 334.483 659.521 334.328 658.933 334.328C658.103 334.328 657.52 334.563 657.183 335.032C656.845 335.502 656.677 336.183 656.677 337.076V341H655.542V333.508H656.458L656.629 334.588H656.69C656.85 334.324 657.053 334.103 657.299 333.925C657.545 333.743 657.821 333.606 658.126 333.515C658.431 333.419 658.753 333.371 659.09 333.371Z" fill="#A9A9C8"/>
<rect x="637" y="236" width="5" height="76" rx="2.5" fill="#757FEF"/>
<rect x="650" y="280" width="5" height="32" rx="2.5" fill="#2DB6F5"/>
<rect x="663" y="280" width="5" height="32" rx="2.5" fill="#EE368C"/>
<path d="M752.925 343.632C752.697 343.632 752.496 343.616 752.323 343.584C752.15 343.552 752.002 343.509 751.879 343.454V342.463C752.025 342.508 752.182 342.543 752.351 342.565C752.519 342.593 752.701 342.606 752.897 342.606C753.153 342.606 753.387 342.556 753.602 342.456C753.816 342.356 753.987 342.185 754.114 341.943C754.242 341.702 754.306 341.369 754.306 340.945V331.006H755.475V340.856C755.475 341.481 755.37 341.998 755.16 342.408C754.955 342.818 754.661 343.124 754.278 343.324C753.9 343.529 753.449 343.632 752.925 343.632ZM764.143 333.508V341H763.213L763.049 339.947H762.987C762.832 340.207 762.632 340.426 762.386 340.604C762.14 340.781 761.862 340.913 761.552 341C761.246 341.091 760.921 341.137 760.574 341.137C759.982 341.137 759.485 341.041 759.084 340.85C758.683 340.658 758.38 340.362 758.175 339.961C757.974 339.56 757.874 339.045 757.874 338.416V333.508H759.022V338.334C759.022 338.958 759.164 339.425 759.446 339.735C759.729 340.041 760.16 340.193 760.738 340.193C761.294 340.193 761.736 340.089 762.064 339.879C762.397 339.669 762.636 339.362 762.782 338.956C762.928 338.546 763.001 338.045 763.001 337.452V333.508H764.143ZM767.684 341H766.542V330.363H767.684V341Z" fill="#A9A9C8"/>
<rect x="745" y="157" width="5" height="155" rx="2.5" fill="#757FEF"/>
<rect x="758" y="171" width="5" height="141" rx="2.5" fill="#2DB6F5"/>
<rect x="771" y="259" width="5" height="53" rx="2.5" fill="#EE368C"/>
<path d="M866.007 338.341C866.007 338.933 865.859 339.439 865.562 339.858C865.271 340.273 864.861 340.59 864.332 340.809C863.803 341.027 863.181 341.137 862.466 341.137C862.088 341.137 861.73 341.118 861.393 341.082C861.055 341.046 860.745 340.993 860.463 340.925C860.18 340.856 859.932 340.772 859.718 340.672V339.558C860.06 339.699 860.477 339.831 860.969 339.954C861.461 340.073 861.976 340.132 862.514 340.132C863.015 340.132 863.439 340.066 863.785 339.934C864.132 339.797 864.394 339.603 864.571 339.353C864.754 339.097 864.845 338.792 864.845 338.437C864.845 338.095 864.77 337.81 864.619 337.582C864.469 337.35 864.218 337.14 863.867 336.953C863.521 336.762 863.047 336.559 862.445 336.345C862.021 336.194 861.648 336.03 861.324 335.853C861.001 335.67 860.729 335.465 860.511 335.237C860.292 335.009 860.126 334.745 860.012 334.444C859.902 334.144 859.848 333.799 859.848 333.412C859.848 332.879 859.982 332.423 860.251 332.045C860.524 331.662 860.9 331.37 861.379 331.17C861.862 330.965 862.416 330.862 863.04 330.862C863.573 330.862 864.065 330.912 864.517 331.013C864.972 331.113 865.389 331.247 865.768 331.416L865.405 332.414C865.045 332.264 864.662 332.138 864.257 332.038C863.856 331.938 863.441 331.888 863.013 331.888C862.584 331.888 862.222 331.951 861.926 332.079C861.634 332.202 861.411 332.378 861.256 332.605C861.101 332.833 861.023 333.104 861.023 333.419C861.023 333.77 861.096 334.062 861.242 334.294C861.393 334.526 861.63 334.734 861.953 334.916C862.281 335.094 862.714 335.281 863.252 335.477C863.84 335.691 864.339 335.919 864.749 336.16C865.159 336.397 865.471 336.689 865.686 337.035C865.9 337.377 866.007 337.812 866.007 338.341ZM870.765 333.371C871.403 333.371 871.95 333.512 872.405 333.795C872.861 334.077 873.21 334.474 873.451 334.984C873.693 335.49 873.813 336.083 873.813 336.762V337.466H868.639C868.652 338.345 868.871 339.015 869.295 339.476C869.719 339.936 870.316 340.166 871.086 340.166C871.56 340.166 871.979 340.123 872.344 340.036C872.708 339.95 873.087 339.822 873.479 339.653V340.651C873.1 340.82 872.724 340.943 872.351 341.021C871.981 341.098 871.544 341.137 871.038 341.137C870.318 341.137 869.689 340.991 869.151 340.699C868.618 340.403 868.203 339.97 867.907 339.4C867.611 338.831 867.463 338.133 867.463 337.309C867.463 336.502 867.597 335.805 867.866 335.217C868.14 334.624 868.522 334.169 869.015 333.85C869.511 333.531 870.095 333.371 870.765 333.371ZM870.751 334.301C870.145 334.301 869.662 334.499 869.302 334.896C868.942 335.292 868.728 335.846 868.659 336.557H872.624C872.619 336.11 872.549 335.718 872.412 335.381C872.28 335.039 872.077 334.775 871.804 334.588C871.53 334.396 871.179 334.301 870.751 334.301ZM879.262 333.371C880.196 333.371 880.941 333.692 881.497 334.335C882.053 334.978 882.331 335.944 882.331 337.233C882.331 338.086 882.203 338.801 881.948 339.38C881.693 339.959 881.333 340.396 880.868 340.692C880.408 340.989 879.863 341.137 879.234 341.137C878.838 341.137 878.489 341.084 878.188 340.979C877.888 340.875 877.63 340.733 877.416 340.556C877.202 340.378 877.024 340.184 876.883 339.975H876.801C876.814 340.152 876.83 340.367 876.849 340.617C876.871 340.868 876.883 341.087 876.883 341.273V344.35H875.741V333.508H876.678L876.828 334.615H876.883C877.029 334.387 877.206 334.18 877.416 333.993C877.626 333.802 877.881 333.651 878.182 333.542C878.487 333.428 878.847 333.371 879.262 333.371ZM879.063 334.328C878.544 334.328 878.125 334.428 877.806 334.629C877.491 334.829 877.261 335.13 877.115 335.531C876.969 335.928 876.892 336.427 876.883 337.028V337.247C876.883 337.881 876.951 338.416 877.088 338.854C877.229 339.291 877.459 339.624 877.778 339.852C878.102 340.079 878.535 340.193 879.077 340.193C879.542 340.193 879.929 340.068 880.239 339.817C880.549 339.567 880.779 339.218 880.93 338.771C881.085 338.32 881.162 337.803 881.162 337.22C881.162 336.336 880.989 335.634 880.643 335.114C880.301 334.59 879.774 334.328 879.063 334.328Z" fill="#A9A9C8"/>
<rect x="856" y="118" width="5" height="194" rx="2.5" fill="#757FEF"/>
<rect x="869" y="149" width="5" height="163" rx="2.5" fill="#2DB6F5"/>
<rect x="882" y="250" width="5" height="62" rx="2.5" fill="#EE368C"/>
<path d="M983.035 335.989C983.035 336.759 982.937 337.461 982.741 338.095C982.545 338.724 982.254 339.266 981.866 339.722C981.483 340.173 981.007 340.521 980.438 340.768C979.868 341.014 979.207 341.137 978.455 341.137C977.68 341.137 977.004 341.014 976.425 340.768C975.851 340.521 975.372 340.171 974.989 339.715C974.611 339.259 974.326 338.715 974.135 338.081C973.948 337.448 973.854 336.746 973.854 335.976C973.854 334.955 974.023 334.059 974.36 333.289C974.698 332.519 975.208 331.92 975.892 331.491C976.58 331.063 977.441 330.849 978.476 330.849C979.465 330.849 980.296 331.061 980.971 331.484C981.65 331.908 982.162 332.505 982.509 333.275C982.86 334.041 983.035 334.946 983.035 335.989ZM975.078 335.989C975.078 336.837 975.199 337.571 975.44 338.19C975.682 338.81 976.051 339.289 976.548 339.626C977.049 339.963 977.685 340.132 978.455 340.132C979.23 340.132 979.863 339.963 980.355 339.626C980.852 339.289 981.219 338.81 981.456 338.19C981.693 337.571 981.812 336.837 981.812 335.989C981.812 334.7 981.54 333.692 980.998 332.968C980.46 332.239 979.619 331.874 978.476 331.874C977.701 331.874 977.063 332.04 976.562 332.373C976.06 332.706 975.687 333.18 975.44 333.795C975.199 334.406 975.078 335.137 975.078 335.989ZM988.094 341.137C987.419 341.137 986.825 340.998 986.31 340.72C985.795 340.442 985.394 340.018 985.106 339.448C984.819 338.879 984.676 338.161 984.676 337.295C984.676 336.388 984.826 335.647 985.127 335.073C985.432 334.494 985.852 334.066 986.385 333.788C986.918 333.51 987.524 333.371 988.203 333.371C988.577 333.371 988.937 333.41 989.283 333.487C989.634 333.56 989.921 333.654 990.145 333.768L989.803 334.718C989.575 334.627 989.311 334.545 989.01 334.472C988.714 334.399 988.436 334.362 988.176 334.362C987.656 334.362 987.223 334.474 986.877 334.697C986.535 334.921 986.278 335.249 986.104 335.682C985.936 336.115 985.852 336.648 985.852 337.281C985.852 337.887 985.934 338.405 986.098 338.833C986.266 339.261 986.515 339.59 986.843 339.817C987.175 340.041 987.59 340.152 988.087 340.152C988.483 340.152 988.841 340.111 989.16 340.029C989.479 339.943 989.769 339.842 990.028 339.729V340.74C989.778 340.868 989.497 340.966 989.188 341.034C988.882 341.103 988.518 341.137 988.094 341.137ZM994.226 340.207C994.412 340.207 994.604 340.191 994.8 340.159C994.996 340.127 995.155 340.089 995.278 340.043V340.925C995.146 340.984 994.962 341.034 994.725 341.075C994.492 341.116 994.264 341.137 994.041 341.137C993.645 341.137 993.285 341.068 992.961 340.932C992.637 340.79 992.378 340.553 992.182 340.221C991.99 339.888 991.895 339.428 991.895 338.84V334.396H990.828V333.843L991.901 333.398L992.353 331.771H993.036V333.508H995.23V334.396H993.036V338.806C993.036 339.275 993.143 339.626 993.357 339.858C993.576 340.091 993.866 340.207 994.226 340.207Z" fill="#A9A9C8"/>
<rect x="969" y="191" width="5" height="121" rx="2.5" fill="#757FEF"/>
<rect x="982" y="205" width="5" height="107" rx="2.5" fill="#2DB6F5"/>
<rect x="995" y="271" width="5" height="41" rx="2.5" fill="#EE368C"/>
<path d="M845.181 48H843.841L838.393 39.6055H838.338C838.352 39.8288 838.368 40.084 838.386 40.3711C838.404 40.6536 838.418 40.9567 838.427 41.2803C838.44 41.5993 838.447 41.9251 838.447 42.2578V48H837.367V38.0059H838.7L844.128 46.373H844.176C844.167 46.2135 844.155 45.988 844.142 45.6963C844.128 45.4001 844.114 45.0833 844.101 44.7461C844.091 44.4043 844.087 44.0876 844.087 43.7959V38.0059H845.181V48ZM850.622 40.3711C851.26 40.3711 851.807 40.5124 852.263 40.7949C852.718 41.0775 853.067 41.474 853.309 41.9844C853.55 42.4902 853.671 43.0827 853.671 43.7617V44.4658H848.496C848.51 45.3454 848.729 46.0153 849.152 46.4756C849.576 46.9359 850.173 47.166 850.943 47.166C851.417 47.166 851.837 47.1227 852.201 47.0361C852.566 46.9495 852.944 46.8219 853.336 46.6533V47.6514C852.958 47.82 852.582 47.943 852.208 48.0205C851.839 48.098 851.401 48.1367 850.896 48.1367C850.175 48.1367 849.547 47.9909 849.009 47.6992C848.476 47.403 848.061 46.9701 847.765 46.4004C847.468 45.8307 847.32 45.1335 847.32 44.3086C847.32 43.502 847.455 42.8047 847.724 42.2168C847.997 41.6243 848.38 41.1686 848.872 40.8496C849.369 40.5306 849.952 40.3711 850.622 40.3711ZM850.608 41.3008C850.002 41.3008 849.519 41.499 849.159 41.8955C848.799 42.292 848.585 42.8457 848.517 43.5566H852.481C852.477 43.11 852.406 42.7181 852.27 42.3809C852.137 42.0391 851.935 41.7747 851.661 41.5879C851.388 41.3965 851.037 41.3008 850.608 41.3008ZM858.019 47.207C858.205 47.207 858.397 47.1911 858.593 47.1592C858.789 47.1273 858.948 47.0885 859.071 47.043V47.9248C858.939 47.984 858.755 48.0342 858.518 48.0752C858.285 48.1162 858.057 48.1367 857.834 48.1367C857.438 48.1367 857.077 48.0684 856.754 47.9316C856.43 47.7904 856.171 47.5534 855.975 47.2207C855.783 46.888 855.688 46.4277 855.688 45.8398V41.3965H854.621V40.8428L855.694 40.3984L856.146 38.7715H856.829V40.5078H859.023V41.3965H856.829V45.8057C856.829 46.2751 856.936 46.626 857.15 46.8584C857.369 47.0908 857.659 47.207 858.019 47.207ZM867.097 38.0059C867.917 38.0059 868.594 38.1084 869.127 38.3135C869.665 38.514 870.066 38.8216 870.33 39.2363C870.594 39.651 870.727 40.1797 870.727 40.8223C870.727 41.3509 870.631 41.793 870.439 42.1484C870.248 42.4993 869.997 42.7842 869.688 43.0029C869.378 43.2217 869.047 43.3903 868.696 43.5088L871.438 48H870.084L867.637 43.8301H865.559V48H864.396V38.0059H867.097ZM867.028 39.0107H865.559V42.8457H867.145C867.96 42.8457 868.56 42.6794 868.942 42.3467C869.33 42.014 869.523 41.5241 869.523 40.877C869.523 40.1979 869.318 39.7171 868.908 39.4346C868.503 39.152 867.876 39.0107 867.028 39.0107ZM875.751 40.3711C876.389 40.3711 876.936 40.5124 877.392 40.7949C877.847 41.0775 878.196 41.474 878.438 41.9844C878.679 42.4902 878.8 43.0827 878.8 43.7617V44.4658H873.625C873.639 45.3454 873.857 46.0153 874.281 46.4756C874.705 46.9359 875.302 47.166 876.072 47.166C876.546 47.166 876.965 47.1227 877.33 47.0361C877.695 46.9495 878.073 46.8219 878.465 46.6533V47.6514C878.087 47.82 877.711 47.943 877.337 48.0205C876.968 48.098 876.53 48.1367 876.024 48.1367C875.304 48.1367 874.675 47.9909 874.138 47.6992C873.604 47.403 873.19 46.9701 872.894 46.4004C872.597 45.8307 872.449 45.1335 872.449 44.3086C872.449 43.502 872.584 42.8047 872.853 42.2168C873.126 41.6243 873.509 41.1686 874.001 40.8496C874.498 40.5306 875.081 40.3711 875.751 40.3711ZM875.737 41.3008C875.131 41.3008 874.648 41.499 874.288 41.8955C873.928 42.292 873.714 42.8457 873.646 43.5566H877.61C877.606 43.11 877.535 42.7181 877.398 42.3809C877.266 42.0391 877.063 41.7747 876.79 41.5879C876.517 41.3965 876.166 41.3008 875.737 41.3008ZM882.375 48L879.531 40.5078H880.748L882.396 45.04C882.509 45.3499 882.626 45.6917 882.744 46.0654C882.863 46.4391 882.945 46.7399 882.99 46.9678H883.038C883.093 46.7399 883.184 46.4391 883.312 46.0654C883.439 45.6872 883.555 45.3454 883.66 45.04L885.308 40.5078H886.524L883.674 48H882.375ZM890.612 40.3711C891.25 40.3711 891.797 40.5124 892.253 40.7949C892.709 41.0775 893.057 41.474 893.299 41.9844C893.54 42.4902 893.661 43.0827 893.661 43.7617V44.4658H888.486C888.5 45.3454 888.719 46.0153 889.143 46.4756C889.566 46.9359 890.163 47.166 890.934 47.166C891.408 47.166 891.827 47.1227 892.191 47.0361C892.556 46.9495 892.934 46.8219 893.326 46.6533V47.6514C892.948 47.82 892.572 47.943 892.198 48.0205C891.829 48.098 891.392 48.1367 890.886 48.1367C890.166 48.1367 889.537 47.9909 888.999 47.6992C888.466 47.403 888.051 46.9701 887.755 46.4004C887.459 45.8307 887.311 45.1335 887.311 44.3086C887.311 43.502 887.445 42.8047 887.714 42.2168C887.987 41.6243 888.37 41.1686 888.862 40.8496C889.359 40.5306 889.942 40.3711 890.612 40.3711ZM890.599 41.3008C889.993 41.3008 889.509 41.499 889.149 41.8955C888.789 42.292 888.575 42.8457 888.507 43.5566H892.472C892.467 43.11 892.396 42.7181 892.26 42.3809C892.128 42.0391 891.925 41.7747 891.651 41.5879C891.378 41.3965 891.027 41.3008 890.599 41.3008ZM899.137 40.3711C900.025 40.3711 900.698 40.5898 901.153 41.0273C901.609 41.4603 901.837 42.1576 901.837 43.1191V48H900.716V43.1943C900.716 42.57 900.572 42.1029 900.285 41.793C900.003 41.4831 899.567 41.3281 898.979 41.3281C898.15 41.3281 897.567 41.5628 897.229 42.0322C896.892 42.5016 896.724 43.1829 896.724 44.0762V48H895.589V40.5078H896.505L896.676 41.5879H896.737C896.897 41.3236 897.1 41.1025 897.346 40.9248C897.592 40.7425 897.868 40.6058 898.173 40.5146C898.478 40.4189 898.799 40.3711 899.137 40.3711ZM910.361 40.5078V48H909.432L909.268 46.9473H909.206C909.051 47.207 908.851 47.4258 908.604 47.6035C908.358 47.7812 908.08 47.9134 907.771 48C907.465 48.0911 907.139 48.1367 906.793 48.1367C906.201 48.1367 905.704 48.041 905.303 47.8496C904.902 47.6582 904.599 47.362 904.394 46.9609C904.193 46.5599 904.093 46.0449 904.093 45.416V40.5078H905.241V45.334C905.241 45.9583 905.382 46.4255 905.665 46.7354C905.948 47.0407 906.378 47.1934 906.957 47.1934C907.513 47.1934 907.955 47.0885 908.283 46.8789C908.616 46.6693 908.855 46.3617 909.001 45.9561C909.147 45.5459 909.22 45.0446 909.22 44.4521V40.5078H910.361ZM915.646 40.3711C916.284 40.3711 916.83 40.5124 917.286 40.7949C917.742 41.0775 918.09 41.474 918.332 41.9844C918.574 42.4902 918.694 43.0827 918.694 43.7617V44.4658H913.52C913.533 45.3454 913.752 46.0153 914.176 46.4756C914.6 46.9359 915.197 47.166 915.967 47.166C916.441 47.166 916.86 47.1227 917.225 47.0361C917.589 46.9495 917.967 46.8219 918.359 46.6533V47.6514C917.981 47.82 917.605 47.943 917.231 48.0205C916.862 48.098 916.425 48.1367 915.919 48.1367C915.199 48.1367 914.57 47.9909 914.032 47.6992C913.499 47.403 913.084 46.9701 912.788 46.4004C912.492 45.8307 912.344 45.1335 912.344 44.3086C912.344 43.502 912.478 42.8047 912.747 42.2168C913.021 41.6243 913.403 41.1686 913.896 40.8496C914.392 40.5306 914.976 40.3711 915.646 40.3711ZM915.632 41.3008C915.026 41.3008 914.543 41.499 914.183 41.8955C913.823 42.292 913.608 42.8457 913.54 43.5566H917.505C917.5 43.11 917.43 42.7181 917.293 42.3809C917.161 42.0391 916.958 41.7747 916.685 41.5879C916.411 41.3965 916.06 41.3008 915.632 41.3008Z" fill="#5B5B98"/>
<circle cx="824" cy="42" r="4" fill="#2DB6F5"/>
<path d="M965.067 38.0059C965.888 38.0059 966.564 38.1084 967.098 38.3135C967.635 38.514 968.036 38.8216 968.301 39.2363C968.565 39.651 968.697 40.1797 968.697 40.8223C968.697 41.3509 968.602 41.793 968.41 42.1484C968.219 42.4993 967.968 42.7842 967.658 43.0029C967.348 43.2217 967.018 43.3903 966.667 43.5088L969.408 48H968.055L965.607 43.8301H963.529V48H962.367V38.0059H965.067ZM964.999 39.0107H963.529V42.8457H965.115C965.931 42.8457 966.53 42.6794 966.913 42.3467C967.3 42.014 967.494 41.5241 967.494 40.877C967.494 40.1979 967.289 39.7171 966.879 39.4346C966.473 39.152 965.847 39.0107 964.999 39.0107ZM973.722 40.3711C974.36 40.3711 974.907 40.5124 975.362 40.7949C975.818 41.0775 976.167 41.474 976.408 41.9844C976.65 42.4902 976.771 43.0827 976.771 43.7617V44.4658H971.596C971.609 45.3454 971.828 46.0153 972.252 46.4756C972.676 46.9359 973.273 47.166 974.043 47.166C974.517 47.166 974.936 47.1227 975.301 47.0361C975.665 46.9495 976.044 46.8219 976.436 46.6533V47.6514C976.057 47.82 975.681 47.943 975.308 48.0205C974.938 48.098 974.501 48.1367 973.995 48.1367C973.275 48.1367 972.646 47.9909 972.108 47.6992C971.575 47.403 971.16 46.9701 970.864 46.4004C970.568 45.8307 970.42 45.1335 970.42 44.3086C970.42 43.502 970.554 42.8047 970.823 42.2168C971.097 41.6243 971.479 41.1686 971.972 40.8496C972.468 40.5306 973.052 40.3711 973.722 40.3711ZM973.708 41.3008C973.102 41.3008 972.619 41.499 972.259 41.8955C971.899 42.292 971.685 42.8457 971.616 43.5566H975.581C975.576 43.11 975.506 42.7181 975.369 42.3809C975.237 42.0391 975.034 41.7747 974.761 41.5879C974.487 41.3965 974.136 41.3008 973.708 41.3008ZM982.034 41.3965H980.168V48H979.033V41.3965H977.707V40.8496L979.033 40.4736V39.9746C979.033 39.3457 979.127 38.8353 979.313 38.4434C979.5 38.0469 979.771 37.7552 980.127 37.5684C980.482 37.3815 980.915 37.2881 981.426 37.2881C981.713 37.2881 981.975 37.3132 982.212 37.3633C982.453 37.4134 982.665 37.4704 982.848 37.5342L982.554 38.4297C982.399 38.3796 982.223 38.334 982.027 38.293C981.836 38.2474 981.64 38.2246 981.439 38.2246C981.007 38.2246 980.685 38.3659 980.476 38.6484C980.271 38.9264 980.168 39.3639 980.168 39.9609V40.5078H982.034V41.3965ZM989.602 40.5078V48H988.672L988.508 46.9473H988.446C988.291 47.207 988.091 47.4258 987.845 47.6035C987.599 47.7812 987.321 47.9134 987.011 48C986.705 48.0911 986.38 48.1367 986.033 48.1367C985.441 48.1367 984.944 48.041 984.543 47.8496C984.142 47.6582 983.839 47.362 983.634 46.9609C983.433 46.5599 983.333 46.0449 983.333 45.416V40.5078H984.481V45.334C984.481 45.9583 984.623 46.4255 984.905 46.7354C985.188 47.0407 985.618 47.1934 986.197 47.1934C986.753 47.1934 987.195 47.0885 987.523 46.8789C987.856 46.6693 988.095 46.3617 988.241 45.9561C988.387 45.5459 988.46 45.0446 988.46 44.4521V40.5078H989.602ZM995.549 40.3711C996.438 40.3711 997.11 40.5898 997.565 41.0273C998.021 41.4603 998.249 42.1576 998.249 43.1191V48H997.128V43.1943C997.128 42.57 996.984 42.1029 996.697 41.793C996.415 41.4831 995.979 41.3281 995.392 41.3281C994.562 41.3281 993.979 41.5628 993.642 42.0322C993.304 42.5016 993.136 43.1829 993.136 44.0762V48H992.001V40.5078H992.917L993.088 41.5879H993.149C993.309 41.3236 993.512 41.1025 993.758 40.9248C994.004 40.7425 994.28 40.6058 994.585 40.5146C994.89 40.4189 995.212 40.3711 995.549 40.3711ZM1003.25 48.1367C1002.31 48.1367 1001.55 47.8132 1001 47.166C1000.45 46.5189 1000.17 45.5573 1000.17 44.2812C1000.17 42.9915 1000.45 42.0186 1001.02 41.3623C1001.58 40.7015 1002.33 40.3711 1003.27 40.3711C1003.67 40.3711 1004.02 40.4235 1004.31 40.5283C1004.61 40.6331 1004.86 40.7744 1005.08 40.9521C1005.29 41.1253 1005.47 41.3236 1005.62 41.5469H1005.7C1005.68 41.4056 1005.66 41.2119 1005.65 40.9658C1005.63 40.7197 1005.62 40.5192 1005.62 40.3643V37.3633H1006.75V48H1005.84L1005.67 46.9336H1005.62C1005.48 47.1569 1005.3 47.3597 1005.08 47.542C1004.86 47.7243 1004.61 47.8701 1004.31 47.9795C1004.01 48.0843 1003.66 48.1367 1003.25 48.1367ZM1003.43 47.1934C1004.23 47.1934 1004.8 46.9655 1005.13 46.5098C1005.47 46.054 1005.63 45.3773 1005.63 44.4795V44.2744C1005.63 43.3219 1005.47 42.5905 1005.15 42.0801C1004.84 41.5697 1004.26 41.3145 1003.43 41.3145C1002.73 41.3145 1002.21 41.5833 1001.87 42.1211C1001.52 42.6543 1001.35 43.3835 1001.35 44.3086C1001.35 45.2292 1001.52 45.9401 1001.86 46.4414C1002.2 46.9427 1002.73 47.1934 1003.43 47.1934ZM1014.01 45.9492C1014.01 46.4277 1013.89 46.8311 1013.64 47.1592C1013.41 47.4827 1013.06 47.7266 1012.62 47.8906C1012.18 48.0547 1011.65 48.1367 1011.03 48.1367C1010.51 48.1367 1010.05 48.0957 1009.67 48.0137C1009.29 47.9316 1008.95 47.8154 1008.67 47.665V46.6191C1008.97 46.7695 1009.34 46.9062 1009.76 47.0293C1010.18 47.1523 1010.62 47.2139 1011.06 47.2139C1011.71 47.2139 1012.18 47.109 1012.47 46.8994C1012.76 46.6898 1012.91 46.4049 1012.91 46.0449C1012.91 45.8398 1012.85 45.6598 1012.73 45.5049C1012.61 45.3454 1012.42 45.1927 1012.15 45.0469C1011.87 44.8965 1011.49 44.7324 1011.01 44.5547C1010.53 44.3724 1010.12 44.1924 1009.77 44.0146C1009.42 43.8324 1009.15 43.6113 1008.96 43.3516C1008.77 43.0918 1008.68 42.7546 1008.68 42.3398C1008.68 41.7064 1008.94 41.221 1009.45 40.8838C1009.96 40.542 1010.64 40.3711 1011.47 40.3711C1011.92 40.3711 1012.34 40.4167 1012.73 40.5078C1013.13 40.5944 1013.5 40.7129 1013.84 40.8633L1013.46 41.7725C1013.15 41.6403 1012.82 41.5286 1012.47 41.4375C1012.12 41.3464 1011.76 41.3008 1011.39 41.3008C1010.87 41.3008 1010.47 41.3874 1010.18 41.5605C1009.91 41.7337 1009.77 41.9707 1009.77 42.2715C1009.77 42.5039 1009.83 42.6953 1009.96 42.8457C1010.09 42.9961 1010.3 43.1374 1010.59 43.2695C1010.88 43.4017 1011.25 43.5566 1011.72 43.7344C1012.19 43.9076 1012.6 44.0876 1012.94 44.2744C1013.28 44.4567 1013.54 44.68 1013.73 44.9443C1013.91 45.2041 1014.01 45.5391 1014.01 45.9492Z" fill="#5B5B98"/>
<circle cx="949" cy="42" r="4" fill="#EE368C"/>
<path d="M759.035 42.9893C759.035 43.7594 758.937 44.4613 758.741 45.0947C758.545 45.7236 758.254 46.266 757.866 46.7217C757.483 47.1729 757.007 47.5215 756.438 47.7676C755.868 48.0137 755.207 48.1367 754.455 48.1367C753.68 48.1367 753.004 48.0137 752.425 47.7676C751.851 47.5215 751.372 47.1706 750.989 46.7148C750.611 46.2591 750.326 45.7145 750.135 45.0811C749.948 44.4476 749.854 43.7458 749.854 42.9756C749.854 41.9548 750.023 41.0592 750.36 40.2891C750.698 39.5189 751.208 38.9196 751.892 38.4912C752.58 38.0628 753.441 37.8486 754.476 37.8486C755.465 37.8486 756.296 38.0605 756.971 38.4844C757.65 38.9082 758.162 39.5052 758.509 40.2754C758.86 41.041 759.035 41.9456 759.035 42.9893ZM751.078 42.9893C751.078 43.8369 751.199 44.5706 751.44 45.1904C751.682 45.8102 752.051 46.2887 752.548 46.626C753.049 46.9632 753.685 47.1318 754.455 47.1318C755.23 47.1318 755.863 46.9632 756.355 46.626C756.852 46.2887 757.219 45.8102 757.456 45.1904C757.693 44.5706 757.812 43.8369 757.812 42.9893C757.812 41.6995 757.54 40.6924 756.998 39.9678C756.46 39.2386 755.619 38.874 754.476 38.874C753.701 38.874 753.063 39.0404 752.562 39.373C752.06 39.7057 751.687 40.1797 751.44 40.7949C751.199 41.4056 751.078 42.137 751.078 42.9893ZM764.497 40.3711C764.647 40.3711 764.805 40.3802 764.969 40.3984C765.133 40.4121 765.279 40.4326 765.406 40.46L765.263 41.5127C765.14 41.4808 765.003 41.4557 764.853 41.4375C764.702 41.4193 764.561 41.4102 764.429 41.4102C764.128 41.4102 763.843 41.4717 763.574 41.5947C763.31 41.7132 763.077 41.8864 762.877 42.1143C762.676 42.3376 762.519 42.6087 762.405 42.9277C762.291 43.2422 762.234 43.5931 762.234 43.9805V48H761.093V40.5078H762.036L762.159 41.8887H762.207C762.362 41.6107 762.549 41.3577 762.768 41.1299C762.986 40.8975 763.239 40.7129 763.526 40.5762C763.818 40.4395 764.142 40.3711 764.497 40.3711ZM769.487 48.1367C768.539 48.1367 767.787 47.8132 767.231 47.166C766.68 46.5189 766.404 45.5573 766.404 44.2812C766.404 42.9915 766.687 42.0186 767.252 41.3623C767.817 40.7015 768.569 40.3711 769.508 40.3711C769.904 40.3711 770.251 40.4235 770.547 40.5283C770.843 40.6331 771.098 40.7744 771.312 40.9521C771.527 41.1253 771.707 41.3236 771.853 41.5469H771.935C771.916 41.4056 771.898 41.2119 771.88 40.9658C771.862 40.7197 771.853 40.5192 771.853 40.3643V37.3633H772.987V48H772.071L771.9 46.9336H771.853C771.711 47.1569 771.531 47.3597 771.312 47.542C771.098 47.7243 770.841 47.8701 770.54 47.9795C770.244 48.0843 769.893 48.1367 769.487 48.1367ZM769.665 47.1934C770.467 47.1934 771.035 46.9655 771.367 46.5098C771.7 46.054 771.866 45.3773 771.866 44.4795V44.2744C771.866 43.3219 771.707 42.5905 771.388 42.0801C771.073 41.5697 770.499 41.3145 769.665 41.3145C768.968 41.3145 768.446 41.5833 768.1 42.1211C767.753 42.6543 767.58 43.3835 767.58 44.3086C767.58 45.2292 767.751 45.9401 768.093 46.4414C768.439 46.9427 768.963 47.1934 769.665 47.1934ZM778.278 40.3711C778.916 40.3711 779.463 40.5124 779.919 40.7949C780.375 41.0775 780.723 41.474 780.965 41.9844C781.206 42.4902 781.327 43.0827 781.327 43.7617V44.4658H776.152C776.166 45.3454 776.385 46.0153 776.809 46.4756C777.232 46.9359 777.829 47.166 778.6 47.166C779.074 47.166 779.493 47.1227 779.857 47.0361C780.222 46.9495 780.6 46.8219 780.992 46.6533V47.6514C780.614 47.82 780.238 47.943 779.864 48.0205C779.495 48.098 779.058 48.1367 778.552 48.1367C777.832 48.1367 777.203 47.9909 776.665 47.6992C776.132 47.403 775.717 46.9701 775.421 46.4004C775.125 45.8307 774.977 45.1335 774.977 44.3086C774.977 43.502 775.111 42.8047 775.38 42.2168C775.653 41.6243 776.036 41.1686 776.528 40.8496C777.025 40.5306 777.608 40.3711 778.278 40.3711ZM778.265 41.3008C777.659 41.3008 777.175 41.499 776.815 41.8955C776.455 42.292 776.241 42.8457 776.173 43.5566H780.138C780.133 43.11 780.062 42.7181 779.926 42.3809C779.794 42.0391 779.591 41.7747 779.317 41.5879C779.044 41.3965 778.693 41.3008 778.265 41.3008ZM786.659 40.3711C786.81 40.3711 786.967 40.3802 787.131 40.3984C787.295 40.4121 787.441 40.4326 787.568 40.46L787.425 41.5127C787.302 41.4808 787.165 41.4557 787.015 41.4375C786.864 41.4193 786.723 41.4102 786.591 41.4102C786.29 41.4102 786.005 41.4717 785.736 41.5947C785.472 41.7132 785.24 41.8864 785.039 42.1143C784.839 42.3376 784.681 42.6087 784.567 42.9277C784.453 43.2422 784.396 43.5931 784.396 43.9805V48H783.255V40.5078H784.198L784.321 41.8887H784.369C784.524 41.6107 784.711 41.3577 784.93 41.1299C785.148 40.8975 785.401 40.7129 785.688 40.5762C785.98 40.4395 786.304 40.3711 786.659 40.3711ZM793.83 45.9492C793.83 46.4277 793.709 46.8311 793.468 47.1592C793.231 47.4827 792.889 47.7266 792.442 47.8906C792 48.0547 791.472 48.1367 790.856 48.1367C790.332 48.1367 789.879 48.0957 789.496 48.0137C789.113 47.9316 788.778 47.8154 788.491 47.665V46.6191C788.797 46.7695 789.161 46.9062 789.585 47.0293C790.009 47.1523 790.442 47.2139 790.884 47.2139C791.531 47.2139 792 47.109 792.292 46.8994C792.584 46.6898 792.729 46.4049 792.729 46.0449C792.729 45.8398 792.67 45.6598 792.552 45.5049C792.438 45.3454 792.244 45.1927 791.971 45.0469C791.697 44.8965 791.319 44.7324 790.836 44.5547C790.357 44.3724 789.943 44.1924 789.592 44.0146C789.245 43.8324 788.977 43.6113 788.785 43.3516C788.598 43.0918 788.505 42.7546 788.505 42.3398C788.505 41.7064 788.76 41.221 789.271 40.8838C789.785 40.542 790.46 40.3711 791.294 40.3711C791.745 40.3711 792.167 40.4167 792.559 40.5078C792.955 40.5944 793.324 40.7129 793.666 40.8633L793.283 41.7725C792.973 41.6403 792.643 41.5286 792.292 41.4375C791.941 41.3464 791.583 41.3008 791.219 41.3008C790.695 41.3008 790.291 41.3874 790.009 41.5605C789.731 41.7337 789.592 41.9707 789.592 42.2715C789.592 42.5039 789.656 42.6953 789.783 42.8457C789.915 42.9961 790.125 43.1374 790.412 43.2695C790.699 43.4017 791.077 43.5566 791.547 43.7344C792.016 43.9076 792.422 44.0876 792.764 44.2744C793.105 44.4567 793.368 44.68 793.55 44.9443C793.737 45.2041 793.83 45.5391 793.83 45.9492Z" fill="#5B5B98"/>
<circle cx="737" cy="42" r="4" fill="#6F52ED"/>
<line x1="20" y1="78.5" x2="1015" y2="78.5001" stroke="#EEF0F7"/>
<path d="M25.13 35.22H27.038L32.006 48H29.882L28.532 44.526H23.6L22.268 48H20.126L25.13 35.22ZM28.136 43.032L26.084 37.434L23.96 43.032H28.136ZM33.2487 44.346V38.586H35.2287V43.95C35.2287 44.79 35.3787 45.426 35.6787 45.858C35.9907 46.278 36.4407 46.488 37.0287 46.488C37.4007 46.488 37.7607 46.41 38.1087 46.254C38.4687 46.098 38.7927 45.87 39.0807 45.57C39.3807 45.258 39.6207 44.886 39.8007 44.454V38.586H41.7807V45.768C41.7807 45.996 41.8227 46.158 41.9067 46.254C41.9907 46.35 42.1287 46.404 42.3207 46.416V48C42.1167 48.036 41.9487 48.06 41.8167 48.072C41.6847 48.084 41.5587 48.09 41.4387 48.09C41.0787 48.09 40.7787 47.994 40.5387 47.802C40.2987 47.598 40.1607 47.34 40.1247 47.028L40.0887 46.092C39.6687 46.776 39.1227 47.298 38.4507 47.658C37.7787 48.006 37.0407 48.18 36.2367 48.18C35.2527 48.18 34.5087 47.856 34.0047 47.208C33.5007 46.56 33.2487 45.606 33.2487 44.346ZM43.8935 43.302C43.8935 42.402 44.0735 41.586 44.4335 40.854C44.8055 40.11 45.3095 39.522 45.9455 39.09C46.5815 38.646 47.3135 38.424 48.1415 38.424C48.8615 38.424 49.5095 38.61 50.0855 38.982C50.6735 39.354 51.1295 39.816 51.4535 40.368V34.86H53.4335V45.768C53.4335 45.996 53.4755 46.158 53.5595 46.254C53.6435 46.35 53.7815 46.404 53.9735 46.416V48C53.6015 48.06 53.3135 48.09 53.1095 48.09C52.7375 48.09 52.4195 47.982 52.1555 47.766C51.9035 47.55 51.7715 47.292 51.7595 46.992L51.7415 46.29C51.3815 46.89 50.8955 47.358 50.2835 47.694C49.6715 48.018 49.0355 48.18 48.3755 48.18C47.7275 48.18 47.1275 48.054 46.5755 47.802C46.0355 47.55 45.5615 47.196 45.1535 46.74C44.7575 46.284 44.4455 45.762 44.2175 45.174C44.0015 44.586 43.8935 43.962 43.8935 43.302ZM51.4535 44.616V42.15C51.3215 41.766 51.1055 41.424 50.8055 41.124C50.5175 40.812 50.1875 40.566 49.8155 40.386C49.4555 40.206 49.0955 40.116 48.7355 40.116C48.3155 40.116 47.9315 40.206 47.5835 40.386C47.2475 40.566 46.9535 40.806 46.7015 41.106C46.4615 41.406 46.2755 41.748 46.1435 42.132C46.0115 42.516 45.9455 42.918 45.9455 43.338C45.9455 43.77 46.0175 44.178 46.1615 44.562C46.3055 44.934 46.5095 45.27 46.7735 45.57C47.0495 45.858 47.3615 46.086 47.7095 46.254C48.0695 46.41 48.4595 46.488 48.8795 46.488C49.1435 46.488 49.4075 46.44 49.6715 46.344C49.9475 46.248 50.2055 46.116 50.4455 45.948C50.6975 45.78 50.9075 45.582 51.0755 45.354C51.2555 45.126 51.3815 44.88 51.4535 44.616ZM56.1284 48V38.586H58.1084V48H56.1284ZM56.1284 37.038V34.86H58.1084V37.038H56.1284ZM64.9338 48.18C64.2018 48.18 63.5358 48.054 62.9358 47.802C62.3478 47.538 61.8378 47.184 61.4058 46.74C60.9738 46.284 60.6378 45.768 60.3978 45.192C60.1698 44.604 60.0558 43.98 60.0558 43.32C60.0558 42.432 60.2598 41.622 60.6678 40.89C61.0758 40.146 61.6458 39.552 62.3778 39.108C63.1098 38.652 63.9678 38.424 64.9518 38.424C65.9358 38.424 66.7818 38.652 67.4898 39.108C68.2098 39.552 68.7678 40.14 69.1638 40.872C69.5598 41.604 69.7578 42.39 69.7578 43.23C69.7578 43.374 69.7518 43.512 69.7398 43.644C69.7278 43.764 69.7158 43.866 69.7038 43.95H62.1618C62.1978 44.502 62.3478 44.988 62.6118 45.408C62.8878 45.816 63.2358 46.14 63.6558 46.38C64.0758 46.608 64.5258 46.722 65.0058 46.722C65.5338 46.722 66.0318 46.59 66.4998 46.326C66.9798 46.062 67.3038 45.714 67.4718 45.282L69.1638 45.768C68.9598 46.224 68.6478 46.638 68.2278 47.01C67.8198 47.37 67.3338 47.658 66.7698 47.874C66.2058 48.078 65.5938 48.18 64.9338 48.18ZM62.1078 42.636H67.7958C67.7598 42.096 67.6038 41.622 67.3278 41.214C67.0638 40.794 66.7218 40.47 66.3018 40.242C65.8938 40.002 65.4378 39.882 64.9338 39.882C64.4418 39.882 63.9858 40.002 63.5658 40.242C63.1578 40.47 62.8218 40.794 62.5578 41.214C62.2938 41.622 62.1438 42.096 62.1078 42.636ZM79.9948 48H78.0148V42.726C78.0148 41.85 77.8708 41.208 77.5828 40.8C77.3068 40.392 76.8928 40.188 76.3408 40.188C75.9568 40.188 75.5728 40.284 75.1888 40.476C74.8168 40.668 74.4808 40.932 74.1808 41.268C73.8808 41.592 73.6648 41.97 73.5328 42.402V48H71.5528V38.586H73.3528V40.476C73.5928 40.056 73.9048 39.696 74.2888 39.396C74.6848 39.084 75.1288 38.844 75.6208 38.676C76.1128 38.508 76.6348 38.424 77.1868 38.424C77.7508 38.424 78.2128 38.526 78.5728 38.73C78.9448 38.934 79.2328 39.216 79.4368 39.576C79.6528 39.924 79.7968 40.332 79.8688 40.8C79.9528 41.256 79.9948 41.742 79.9948 42.258V48ZM86.7391 48.18C86.0071 48.18 85.3411 48.054 84.7411 47.802C84.1531 47.538 83.6431 47.178 83.2111 46.722C82.7791 46.266 82.4431 45.744 82.2031 45.156C81.9751 44.568 81.8611 43.944 81.8611 43.284C81.8611 42.396 82.0591 41.586 82.4551 40.854C82.8631 40.122 83.4271 39.534 84.1471 39.09C84.8791 38.646 85.7431 38.424 86.7391 38.424C87.6991 38.424 88.5331 38.64 89.2411 39.072C89.9611 39.492 90.4891 40.056 90.8251 40.764L88.8991 41.376C88.6831 40.98 88.3771 40.674 87.9811 40.458C87.5971 40.23 87.1711 40.116 86.7031 40.116C86.1751 40.116 85.6951 40.254 85.2631 40.53C84.8431 40.794 84.5071 41.166 84.2551 41.646C84.0151 42.114 83.8951 42.66 83.8951 43.284C83.8951 43.884 84.0211 44.43 84.2731 44.922C84.5251 45.402 84.8611 45.786 85.2811 46.074C85.7131 46.35 86.1931 46.488 86.7211 46.488C87.0451 46.488 87.3571 46.434 87.6571 46.326C87.9691 46.206 88.2391 46.05 88.4671 45.858C88.6951 45.654 88.8571 45.432 88.9531 45.192L90.8971 45.768C90.6931 46.236 90.3871 46.65 89.9791 47.01C89.5831 47.37 89.1091 47.658 88.5571 47.874C88.0171 48.078 87.4111 48.18 86.7391 48.18ZM96.8859 48.18C96.1539 48.18 95.4879 48.054 94.8879 47.802C94.2999 47.538 93.7899 47.184 93.3579 46.74C92.9259 46.284 92.5899 45.768 92.3499 45.192C92.1219 44.604 92.0079 43.98 92.0079 43.32C92.0079 42.432 92.2119 41.622 92.6199 40.89C93.0279 40.146 93.5979 39.552 94.3299 39.108C95.0619 38.652 95.9199 38.424 96.9039 38.424C97.8879 38.424 98.7339 38.652 99.4419 39.108C100.162 39.552 100.72 40.14 101.116 40.872C101.512 41.604 101.71 42.39 101.71 43.23C101.71 43.374 101.704 43.512 101.692 43.644C101.68 43.764 101.668 43.866 101.656 43.95H94.1139C94.1499 44.502 94.2999 44.988 94.5639 45.408C94.8399 45.816 95.1879 46.14 95.6079 46.38C96.0279 46.608 96.4779 46.722 96.9579 46.722C97.4859 46.722 97.9839 46.59 98.4519 46.326C98.9319 46.062 99.2559 45.714 99.4239 45.282L101.116 45.768C100.912 46.224 100.6 46.638 100.18 47.01C99.7719 47.37 99.2859 47.658 98.7219 47.874C98.1579 48.078 97.5459 48.18 96.8859 48.18ZM94.0599 42.636H99.7479C99.7119 42.096 99.5559 41.622 99.2799 41.214C99.0159 40.794 98.6739 40.47 98.2539 40.242C97.8459 40.002 97.3899 39.882 96.8859 39.882C96.3939 39.882 95.9379 40.002 95.5179 40.242C95.1099 40.47 94.7739 40.794 94.5099 41.214C94.2459 41.622 94.0959 42.096 94.0599 42.636ZM113.694 48.09C112.77 48.09 111.936 47.91 111.192 47.55C110.448 47.19 109.806 46.704 109.266 46.092C108.726 45.468 108.306 44.772 108.006 44.004C107.718 43.224 107.574 42.426 107.574 41.61C107.574 40.758 107.73 39.948 108.042 39.18C108.354 38.4 108.786 37.71 109.338 37.11C109.89 36.498 110.538 36.018 111.282 35.67C112.038 35.31 112.854 35.13 113.73 35.13C114.642 35.13 115.47 35.316 116.214 35.688C116.97 36.06 117.612 36.558 118.14 37.182C118.68 37.806 119.094 38.502 119.382 39.27C119.682 40.038 119.832 40.824 119.832 41.628C119.832 42.48 119.676 43.296 119.364 44.076C119.064 44.844 118.638 45.534 118.086 46.146C117.534 46.746 116.88 47.22 116.124 47.568C115.38 47.916 114.57 48.09 113.694 48.09ZM109.626 41.61C109.626 42.21 109.722 42.792 109.914 43.356C110.106 43.92 110.376 44.424 110.724 44.868C111.084 45.3 111.516 45.642 112.02 45.894C112.524 46.146 113.088 46.272 113.712 46.272C114.36 46.272 114.936 46.14 115.44 45.876C115.944 45.612 116.364 45.258 116.7 44.814C117.048 44.358 117.312 43.854 117.492 43.302C117.672 42.738 117.762 42.174 117.762 41.61C117.762 41.01 117.666 40.434 117.474 39.882C117.294 39.318 117.024 38.82 116.664 38.388C116.304 37.944 115.872 37.596 115.368 37.344C114.876 37.092 114.324 36.966 113.712 36.966C113.064 36.966 112.488 37.098 111.984 37.362C111.48 37.626 111.054 37.98 110.706 38.424C110.358 38.868 110.088 39.366 109.896 39.918C109.716 40.47 109.626 41.034 109.626 41.61ZM124.475 48L120.893 38.586H122.945L125.627 46.164L128.309 38.586H130.217L126.635 48H124.475ZM135.768 48.18C135.036 48.18 134.37 48.054 133.77 47.802C133.182 47.538 132.672 47.184 132.24 46.74C131.808 46.284 131.472 45.768 131.232 45.192C131.004 44.604 130.89 43.98 130.89 43.32C130.89 42.432 131.094 41.622 131.502 40.89C131.91 40.146 132.48 39.552 133.212 39.108C133.944 38.652 134.802 38.424 135.786 38.424C136.77 38.424 137.616 38.652 138.324 39.108C139.044 39.552 139.602 40.14 139.998 40.872C140.394 41.604 140.592 42.39 140.592 43.23C140.592 43.374 140.586 43.512 140.574 43.644C140.562 43.764 140.55 43.866 140.538 43.95H132.996C133.032 44.502 133.182 44.988 133.446 45.408C133.722 45.816 134.07 46.14 134.49 46.38C134.91 46.608 135.36 46.722 135.84 46.722C136.368 46.722 136.866 46.59 137.334 46.326C137.814 46.062 138.138 45.714 138.306 45.282L139.998 45.768C139.794 46.224 139.482 46.638 139.062 47.01C138.654 47.37 138.168 47.658 137.604 47.874C137.04 48.078 136.428 48.18 135.768 48.18ZM132.942 42.636H138.63C138.594 42.096 138.438 41.622 138.162 41.214C137.898 40.794 137.556 40.47 137.136 40.242C136.728 40.002 136.272 39.882 135.768 39.882C135.276 39.882 134.82 40.002 134.4 40.242C133.992 40.47 133.656 40.794 133.392 41.214C133.128 41.622 132.978 42.096 132.942 42.636ZM147.679 40.296C146.911 40.308 146.227 40.482 145.627 40.818C145.039 41.154 144.619 41.628 144.367 42.24V48H142.387V38.586H144.223V40.692C144.547 40.044 144.973 39.528 145.501 39.144C146.029 38.748 146.587 38.532 147.175 38.496C147.295 38.496 147.391 38.496 147.463 38.496C147.547 38.496 147.619 38.502 147.679 38.514V40.296ZM151.927 48L148.345 38.586H150.397L153.079 46.164L155.761 38.586H157.669L154.087 48H151.927ZM159.271 48V38.586H161.251V48H159.271ZM159.271 37.038V34.86H161.251V37.038H159.271ZM168.076 48.18C167.344 48.18 166.678 48.054 166.078 47.802C165.49 47.538 164.98 47.184 164.548 46.74C164.116 46.284 163.78 45.768 163.54 45.192C163.312 44.604 163.198 43.98 163.198 43.32C163.198 42.432 163.402 41.622 163.81 40.89C164.218 40.146 164.788 39.552 165.52 39.108C166.252 38.652 167.11 38.424 168.094 38.424C169.078 38.424 169.924 38.652 170.632 39.108C171.352 39.552 171.91 40.14 172.306 40.872C172.702 41.604 172.9 42.39 172.9 43.23C172.9 43.374 172.894 43.512 172.882 43.644C172.87 43.764 172.858 43.866 172.846 43.95H165.304C165.34 44.502 165.49 44.988 165.754 45.408C166.03 45.816 166.378 46.14 166.798 46.38C167.218 46.608 167.668 46.722 168.148 46.722C168.676 46.722 169.174 46.59 169.642 46.326C170.122 46.062 170.446 45.714 170.614 45.282L172.306 45.768C172.102 46.224 171.79 46.638 171.37 47.01C170.962 47.37 170.476 47.658 169.912 47.874C169.348 48.078 168.736 48.18 168.076 48.18ZM165.25 42.636H170.938C170.902 42.096 170.746 41.622 170.47 41.214C170.206 40.794 169.864 40.47 169.444 40.242C169.036 40.002 168.58 39.882 168.076 39.882C167.584 39.882 167.128 40.002 166.708 40.242C166.3 40.47 165.964 40.794 165.7 41.214C165.436 41.622 165.286 42.096 165.25 42.636ZM186.167 38.586H188.057L184.097 48H182.405L180.713 43.752L179.021 48H177.329L173.351 38.586H175.241L178.265 46.074L179.597 42.6L177.977 38.604H179.651L180.713 41.538L181.757 38.604H183.431L181.829 42.6L183.161 46.074L186.167 38.586Z" fill="#260944"/>
<g filter="url(#filter0_d_77_368)">
<rect x="385" y="86" width="110" height="110" rx="10" fill="white"/>
</g>
<path d="M417.915 133H416.808V125.918C416.808 125.649 416.808 125.419 416.808 125.228C416.812 125.032 416.817 124.854 416.821 124.694C416.83 124.53 416.842 124.364 416.855 124.195C416.714 124.341 416.582 124.466 416.459 124.571C416.336 124.672 416.183 124.797 416.001 124.947L414.859 125.863L414.265 125.091L416.972 123.006H417.915V133ZM421.805 128.728C421.805 128.126 421.846 127.538 421.928 126.964C422.014 126.39 422.158 125.856 422.358 125.364C422.559 124.868 422.832 124.432 423.179 124.059C423.525 123.685 423.956 123.393 424.471 123.184C424.99 122.969 425.612 122.862 426.337 122.862C426.542 122.862 426.763 122.874 427 122.896C427.237 122.915 427.433 122.947 427.588 122.992V123.97C427.419 123.91 427.226 123.867 427.007 123.84C426.793 123.812 426.576 123.799 426.357 123.799C425.51 123.799 424.842 123.983 424.354 124.353C423.871 124.722 423.523 125.223 423.309 125.856C423.094 126.485 422.971 127.194 422.939 127.982H423.015C423.156 127.755 423.336 127.549 423.555 127.367C423.773 127.18 424.038 127.032 424.348 126.923C424.662 126.813 425.027 126.759 425.441 126.759C426.025 126.759 426.533 126.877 426.966 127.114C427.403 127.351 427.741 127.695 427.978 128.146C428.219 128.598 428.34 129.145 428.34 129.787C428.34 130.475 428.212 131.07 427.957 131.571C427.702 132.073 427.337 132.46 426.863 132.733C426.394 133.002 425.833 133.137 425.182 133.137C424.694 133.137 424.245 133.043 423.835 132.856C423.425 132.67 423.067 132.392 422.762 132.022C422.461 131.653 422.226 131.195 422.058 130.648C421.889 130.097 421.805 129.457 421.805 128.728ZM425.168 132.18C425.788 132.18 426.285 131.981 426.658 131.585C427.032 131.188 427.219 130.589 427.219 129.787C427.219 129.131 427.052 128.611 426.72 128.229C426.387 127.846 425.886 127.654 425.216 127.654C424.76 127.654 424.364 127.75 424.026 127.941C423.689 128.128 423.427 128.365 423.24 128.652C423.053 128.939 422.96 129.231 422.96 129.527C422.96 129.828 423.003 130.133 423.09 130.443C423.181 130.753 423.318 131.04 423.5 131.305C423.682 131.569 423.912 131.781 424.19 131.94C424.468 132.1 424.794 132.18 425.168 132.18ZM436.317 127.989C436.317 128.8 436.256 129.525 436.133 130.163C436.01 130.801 435.816 131.341 435.552 131.783C435.287 132.225 434.946 132.562 434.526 132.795C434.107 133.023 433.604 133.137 433.016 133.137C432.273 133.137 431.658 132.934 431.17 132.528C430.687 132.123 430.325 131.537 430.083 130.771C429.846 130.001 429.728 129.074 429.728 127.989C429.728 126.923 429.835 126.007 430.049 125.241C430.268 124.471 430.618 123.881 431.102 123.471C431.585 123.056 432.223 122.849 433.016 122.849C433.768 122.849 434.387 123.054 434.875 123.464C435.363 123.869 435.725 124.457 435.962 125.228C436.199 125.993 436.317 126.914 436.317 127.989ZM430.869 127.989C430.869 128.919 430.94 129.694 431.081 130.313C431.222 130.933 431.45 131.398 431.765 131.708C432.084 132.013 432.501 132.166 433.016 132.166C433.531 132.166 433.945 132.013 434.26 131.708C434.579 131.403 434.809 130.94 434.95 130.32C435.096 129.701 435.169 128.924 435.169 127.989C435.169 127.073 435.098 126.308 434.957 125.692C434.816 125.073 434.588 124.608 434.273 124.298C433.959 123.983 433.54 123.826 433.016 123.826C432.492 123.826 432.072 123.983 431.758 124.298C431.443 124.608 431.215 125.073 431.074 125.692C430.938 126.308 430.869 127.073 430.869 127.989ZM444.274 133H437.726V132.05L440.398 129.336C440.895 128.835 441.312 128.388 441.649 127.996C441.991 127.604 442.251 127.219 442.429 126.841C442.606 126.458 442.695 126.039 442.695 125.583C442.695 125.018 442.527 124.587 442.189 124.291C441.857 123.99 441.417 123.84 440.87 123.84C440.392 123.84 439.968 123.922 439.599 124.086C439.229 124.25 438.851 124.482 438.464 124.783L437.855 124.018C438.12 123.794 438.407 123.596 438.717 123.423C439.031 123.25 439.366 123.113 439.722 123.013C440.082 122.912 440.465 122.862 440.87 122.862C441.485 122.862 442.016 122.969 442.463 123.184C442.91 123.398 443.254 123.703 443.495 124.1C443.741 124.496 443.864 124.968 443.864 125.515C443.864 126.043 443.759 126.535 443.55 126.991C443.34 127.442 443.046 127.891 442.668 128.338C442.29 128.78 441.848 129.249 441.342 129.746L439.168 131.913V131.961H444.274V133ZM452.341 127.989C452.341 128.8 452.279 129.525 452.156 130.163C452.033 130.801 451.84 131.341 451.575 131.783C451.311 132.225 450.969 132.562 450.55 132.795C450.131 133.023 449.627 133.137 449.039 133.137C448.296 133.137 447.681 132.934 447.193 132.528C446.71 132.123 446.348 131.537 446.106 130.771C445.869 130.001 445.751 129.074 445.751 127.989C445.751 126.923 445.858 126.007 446.072 125.241C446.291 124.471 446.642 123.881 447.125 123.471C447.608 123.056 448.246 122.849 449.039 122.849C449.791 122.849 450.411 123.054 450.898 123.464C451.386 123.869 451.748 124.457 451.985 125.228C452.222 125.993 452.341 126.914 452.341 127.989ZM446.893 127.989C446.893 128.919 446.963 129.694 447.104 130.313C447.246 130.933 447.474 131.398 447.788 131.708C448.107 132.013 448.524 132.166 449.039 132.166C449.554 132.166 449.969 132.013 450.283 131.708C450.602 131.403 450.832 130.94 450.974 130.32C451.119 129.701 451.192 128.924 451.192 127.989C451.192 127.073 451.122 126.308 450.98 125.692C450.839 125.073 450.611 124.608 450.297 124.298C449.982 123.983 449.563 123.826 449.039 123.826C448.515 123.826 448.096 123.983 447.781 124.298C447.467 124.608 447.239 125.073 447.098 125.692C446.961 126.308 446.893 127.073 446.893 127.989ZM459.929 125.337C459.929 125.784 459.842 126.171 459.669 126.499C459.496 126.827 459.254 127.096 458.944 127.306C458.634 127.511 458.27 127.654 457.851 127.736V127.791C458.644 127.891 459.238 128.146 459.635 128.557C460.036 128.967 460.236 129.505 460.236 130.17C460.236 130.749 460.1 131.261 459.826 131.708C459.557 132.155 459.143 132.506 458.582 132.761C458.026 133.011 457.313 133.137 456.442 133.137C455.914 133.137 455.424 133.093 454.973 133.007C454.526 132.925 454.098 132.786 453.688 132.59V131.523C454.102 131.729 454.553 131.89 455.041 132.009C455.529 132.123 456 132.18 456.456 132.18C457.368 132.18 458.026 132 458.432 131.64C458.837 131.275 459.04 130.778 459.04 130.149C459.04 129.716 458.926 129.368 458.698 129.104C458.475 128.835 458.151 128.639 457.728 128.516C457.308 128.388 456.802 128.324 456.21 128.324H455.212V127.354H456.217C456.759 127.354 457.219 127.274 457.598 127.114C457.976 126.955 458.263 126.731 458.459 126.444C458.66 126.153 458.76 125.809 458.76 125.412C458.76 124.906 458.591 124.517 458.254 124.243C457.917 123.965 457.459 123.826 456.88 123.826C456.524 123.826 456.201 123.863 455.909 123.936C455.618 124.008 455.344 124.109 455.089 124.236C454.834 124.364 454.578 124.512 454.323 124.681L453.749 123.901C454.114 123.619 454.558 123.375 455.082 123.17C455.606 122.965 456.201 122.862 456.866 122.862C457.887 122.862 458.653 123.095 459.163 123.56C459.674 124.024 459.929 124.617 459.929 125.337Z" fill="#5B5B98"/>
<path d="M416.541 159.813V158.378C416.017 158.369 415.516 158.323 415.037 158.241C414.563 158.159 414.176 158.052 413.875 157.92V156.812C414.189 156.958 414.593 157.086 415.085 157.195C415.577 157.305 416.062 157.364 416.541 157.373V154.365C415.939 154.197 415.44 154.005 415.044 153.791C414.652 153.572 414.358 153.306 414.162 152.991C413.966 152.677 413.868 152.296 413.868 151.85C413.868 151.385 413.978 150.988 414.196 150.66C414.42 150.327 414.732 150.068 415.133 149.881C415.534 149.694 416.003 149.587 416.541 149.56V148.377H417.375V149.546C417.863 149.56 418.307 149.614 418.708 149.71C419.109 149.801 419.48 149.92 419.822 150.065L419.467 151.016C419.157 150.893 418.822 150.788 418.462 150.701C418.102 150.615 417.74 150.555 417.375 150.523V153.511C417.986 153.688 418.496 153.878 418.906 154.078C419.321 154.279 419.633 154.527 419.843 154.823C420.052 155.119 420.157 155.502 420.157 155.972C420.157 156.637 419.913 157.175 419.426 157.585C418.938 157.991 418.255 158.237 417.375 158.323V159.813H416.541ZM417.375 157.312C417.936 157.257 418.353 157.122 418.626 156.908C418.904 156.689 419.043 156.402 419.043 156.047C419.043 155.792 418.988 155.582 418.879 155.418C418.774 155.254 418.601 155.113 418.359 154.994C418.118 154.871 417.79 154.755 417.375 154.646V157.312ZM416.541 153.224V150.551C416.199 150.574 415.912 150.637 415.68 150.742C415.447 150.847 415.272 150.984 415.153 151.152C415.039 151.321 414.982 151.521 414.982 151.754C414.982 152.023 415.033 152.248 415.133 152.431C415.238 152.608 415.404 152.761 415.632 152.889C415.864 153.012 416.167 153.123 416.541 153.224ZM425.004 148.862C425.583 148.862 426.095 148.953 426.542 149.136C426.989 149.318 427.337 149.587 427.588 149.942C427.843 150.293 427.971 150.726 427.971 151.241C427.971 151.647 427.882 152.002 427.704 152.308C427.531 152.608 427.296 152.873 427 153.101C426.704 153.324 426.376 153.524 426.016 153.702C426.444 153.898 426.829 154.119 427.171 154.365C427.517 154.611 427.791 154.901 427.991 155.233C428.192 155.566 428.292 155.96 428.292 156.416C428.292 156.977 428.155 157.462 427.882 157.872C427.613 158.278 427.235 158.59 426.747 158.809C426.259 159.027 425.688 159.137 425.031 159.137C424.325 159.137 423.723 159.032 423.227 158.822C422.734 158.608 422.358 158.303 422.099 157.906C421.843 157.505 421.716 157.024 421.716 156.464C421.716 156.004 421.814 155.605 422.01 155.268C422.206 154.926 422.465 154.632 422.789 154.386C423.113 154.14 423.466 153.932 423.849 153.764C423.516 153.581 423.211 153.374 422.933 153.142C422.659 152.909 422.44 152.638 422.276 152.328C422.117 152.014 422.037 151.649 422.037 151.234C422.037 150.729 422.165 150.3 422.42 149.949C422.68 149.594 423.033 149.325 423.479 149.143C423.931 148.956 424.439 148.862 425.004 148.862ZM422.83 156.471C422.83 156.981 423.01 157.403 423.37 157.735C423.73 158.063 424.275 158.228 425.004 158.228C425.697 158.228 426.232 158.063 426.61 157.735C426.989 157.403 427.178 156.967 427.178 156.43C427.178 156.097 427.091 155.805 426.918 155.555C426.745 155.299 426.499 155.072 426.18 154.871C425.861 154.671 425.485 154.488 425.052 154.324L424.806 154.235C424.386 154.409 424.029 154.602 423.732 154.816C423.441 155.026 423.217 155.265 423.062 155.534C422.908 155.803 422.83 156.115 422.83 156.471ZM424.99 149.792C424.452 149.792 424.013 149.922 423.671 150.182C423.329 150.437 423.158 150.806 423.158 151.289C423.158 151.635 423.24 151.929 423.404 152.171C423.573 152.408 423.801 152.613 424.088 152.786C424.375 152.955 424.696 153.112 425.052 153.258C425.398 153.112 425.706 152.952 425.975 152.779C426.243 152.602 426.455 152.392 426.61 152.15C426.765 151.909 426.843 151.619 426.843 151.282C426.843 150.799 426.672 150.43 426.33 150.175C425.993 149.92 425.546 149.792 424.99 149.792ZM436.317 153.989C436.317 154.8 436.256 155.525 436.133 156.163C436.01 156.801 435.816 157.341 435.552 157.783C435.287 158.225 434.946 158.562 434.526 158.795C434.107 159.023 433.604 159.137 433.016 159.137C432.273 159.137 431.658 158.934 431.17 158.528C430.687 158.123 430.325 157.537 430.083 156.771C429.846 156.001 429.728 155.074 429.728 153.989C429.728 152.923 429.835 152.007 430.049 151.241C430.268 150.471 430.618 149.881 431.102 149.471C431.585 149.056 432.223 148.849 433.016 148.849C433.768 148.849 434.387 149.054 434.875 149.464C435.363 149.869 435.725 150.457 435.962 151.228C436.199 151.993 436.317 152.914 436.317 153.989ZM430.869 153.989C430.869 154.919 430.94 155.694 431.081 156.313C431.222 156.933 431.45 157.398 431.765 157.708C432.084 158.013 432.501 158.166 433.016 158.166C433.531 158.166 433.945 158.013 434.26 157.708C434.579 157.403 434.809 156.94 434.95 156.32C435.096 155.701 435.169 154.924 435.169 153.989C435.169 153.073 435.098 152.308 434.957 151.692C434.816 151.073 434.588 150.608 434.273 150.298C433.959 149.983 433.54 149.826 433.016 149.826C432.492 149.826 432.072 149.983 431.758 150.298C431.443 150.608 431.215 151.073 431.074 151.692C430.938 152.308 430.869 153.073 430.869 153.989ZM444.329 153.989C444.329 154.8 444.268 155.525 444.145 156.163C444.021 156.801 443.828 157.341 443.563 157.783C443.299 158.225 442.957 158.562 442.538 158.795C442.119 159.023 441.615 159.137 441.027 159.137C440.285 159.137 439.669 158.934 439.182 158.528C438.699 158.123 438.336 157.537 438.095 156.771C437.858 156.001 437.739 155.074 437.739 153.989C437.739 152.923 437.846 152.007 438.061 151.241C438.279 150.471 438.63 149.881 439.113 149.471C439.596 149.056 440.234 148.849 441.027 148.849C441.779 148.849 442.399 149.054 442.887 149.464C443.374 149.869 443.737 150.457 443.974 151.228C444.211 151.993 444.329 152.914 444.329 153.989ZM438.881 153.989C438.881 154.919 438.951 155.694 439.093 156.313C439.234 156.933 439.462 157.398 439.776 157.708C440.095 158.013 440.512 158.166 441.027 158.166C441.542 158.166 441.957 158.013 442.271 157.708C442.59 157.403 442.821 156.94 442.962 156.32C443.108 155.701 443.181 154.924 443.181 153.989C443.181 153.073 443.11 152.308 442.969 151.692C442.827 151.073 442.6 150.608 442.285 150.298C441.971 149.983 441.551 149.826 441.027 149.826C440.503 149.826 440.084 149.983 439.77 150.298C439.455 150.608 439.227 151.073 439.086 151.692C438.949 152.308 438.881 153.073 438.881 153.989ZM452.785 156.683H451.288V159H450.181V156.683H445.348V155.726L450.105 148.951H451.288V155.657H452.785V156.683ZM450.181 155.657V152.39C450.181 152.139 450.183 151.913 450.188 151.713C450.192 151.508 450.199 151.319 450.208 151.146C450.217 150.968 450.224 150.799 450.229 150.64C450.238 150.48 450.244 150.323 450.249 150.168H450.194C450.108 150.35 450.007 150.544 449.894 150.749C449.784 150.95 449.673 151.13 449.559 151.289L446.476 155.657H450.181ZM454.084 158.289C454.084 157.97 454.161 157.744 454.316 157.612C454.471 157.476 454.66 157.407 454.884 157.407C455.116 157.407 455.312 157.476 455.472 157.612C455.631 157.744 455.711 157.97 455.711 158.289C455.711 158.604 455.631 158.834 455.472 158.979C455.312 159.121 455.116 159.191 454.884 159.191C454.66 159.191 454.471 159.121 454.316 158.979C454.161 158.834 454.084 158.604 454.084 158.289ZM464.03 153.989C464.03 154.8 463.969 155.525 463.846 156.163C463.723 156.801 463.529 157.341 463.265 157.783C463 158.225 462.659 158.562 462.239 158.795C461.82 159.023 461.316 159.137 460.729 159.137C459.986 159.137 459.37 158.934 458.883 158.528C458.4 158.123 458.037 157.537 457.796 156.771C457.559 156.001 457.44 155.074 457.44 153.989C457.44 152.923 457.548 152.007 457.762 151.241C457.98 150.471 458.331 149.881 458.814 149.471C459.298 149.056 459.936 148.849 460.729 148.849C461.48 148.849 462.1 149.054 462.588 149.464C463.076 149.869 463.438 150.457 463.675 151.228C463.912 151.993 464.03 152.914 464.03 153.989ZM458.582 153.989C458.582 154.919 458.653 155.694 458.794 156.313C458.935 156.933 459.163 157.398 459.478 157.708C459.797 158.013 460.214 158.166 460.729 158.166C461.243 158.166 461.658 158.013 461.973 157.708C462.292 157.403 462.522 156.94 462.663 156.32C462.809 155.701 462.882 154.924 462.882 153.989C462.882 153.073 462.811 152.308 462.67 151.692C462.529 151.073 462.301 150.608 461.986 150.298C461.672 149.983 461.253 149.826 460.729 149.826C460.204 149.826 459.785 149.983 459.471 150.298C459.156 150.608 458.928 151.073 458.787 151.692C458.65 152.308 458.582 153.073 458.582 153.989ZM472.042 153.989C472.042 154.8 471.98 155.525 471.857 156.163C471.734 156.801 471.541 157.341 471.276 157.783C471.012 158.225 470.67 158.562 470.251 158.795C469.832 159.023 469.328 159.137 468.74 159.137C467.997 159.137 467.382 158.934 466.895 158.528C466.411 158.123 466.049 157.537 465.808 156.771C465.571 156.001 465.452 155.074 465.452 153.989C465.452 152.923 465.559 152.007 465.773 151.241C465.992 150.471 466.343 149.881 466.826 149.471C467.309 149.056 467.947 148.849 468.74 148.849C469.492 148.849 470.112 149.054 470.6 149.464C471.087 149.869 471.45 150.457 471.687 151.228C471.924 151.993 472.042 152.914 472.042 153.989ZM466.594 153.989C466.594 154.919 466.664 155.694 466.806 156.313C466.947 156.933 467.175 157.398 467.489 157.708C467.808 158.013 468.225 158.166 468.74 158.166C469.255 158.166 469.67 158.013 469.984 157.708C470.303 157.403 470.534 156.94 470.675 156.32C470.821 155.701 470.894 154.924 470.894 153.989C470.894 153.073 470.823 152.308 470.682 151.692C470.54 151.073 470.312 150.608 469.998 150.298C469.684 149.983 469.264 149.826 468.74 149.826C468.216 149.826 467.797 149.983 467.482 150.298C467.168 150.608 466.94 151.073 466.799 151.692C466.662 152.308 466.594 153.073 466.594 153.989Z" fill="#5B5B98"/>
<path d="M417.915 184H416.808V176.918C416.808 176.649 416.808 176.419 416.808 176.228C416.812 176.032 416.817 175.854 416.821 175.694C416.83 175.53 416.842 175.364 416.855 175.195C416.714 175.341 416.582 175.466 416.459 175.571C416.336 175.672 416.183 175.797 416.001 175.947L414.859 176.863L414.265 176.091L416.972 174.006H417.915V184ZM424.86 177.889C425.539 177.889 426.13 178.005 426.631 178.237C427.132 178.465 427.52 178.798 427.793 179.235C428.071 179.673 428.21 180.204 428.21 180.828C428.21 181.512 428.062 182.102 427.766 182.599C427.469 183.091 427.043 183.471 426.487 183.74C425.931 184.005 425.266 184.137 424.491 184.137C423.972 184.137 423.489 184.091 423.042 184C422.595 183.909 422.219 183.772 421.914 183.59V182.51C422.247 182.71 422.65 182.87 423.124 182.988C423.598 183.107 424.058 183.166 424.505 183.166C425.011 183.166 425.453 183.086 425.831 182.927C426.214 182.763 426.51 182.517 426.72 182.188C426.934 181.856 427.041 181.439 427.041 180.938C427.041 180.272 426.836 179.759 426.426 179.399C426.02 179.035 425.378 178.853 424.498 178.853C424.215 178.853 423.906 178.875 423.568 178.921C423.231 178.966 422.953 179.017 422.734 179.071L422.16 178.695L422.543 174.006H427.513V175.045H423.514L423.261 178.06C423.434 178.023 423.657 177.987 423.931 177.95C424.204 177.909 424.514 177.889 424.86 177.889ZM431.006 184L435.107 175.045H429.659V174.006H436.324V174.881L432.25 184H431.006Z" fill="#5B5B98"/>
<rect x="399" y="127" width="7" height="2" fill="#757FEF"/>
<rect x="399" y="153" width="7" height="2" fill="#2DAEEF"/>
<rect x="399" y="178" width="7" height="2" fill="#E7388E"/>
<path d="M405.97 108L405.062 105.423H401.514L400.606 108H399L402.453 98.6816H404.142L407.588 108H405.97ZM404.668 104.115L403.786 101.576C403.752 101.466 403.704 101.312 403.64 101.113C403.577 100.91 403.513 100.704 403.45 100.497C403.386 100.285 403.333 100.108 403.291 99.9639C403.249 100.137 403.196 100.332 403.132 100.548C403.073 100.759 403.014 100.958 402.955 101.145C402.9 101.331 402.857 101.475 402.828 101.576L401.939 104.115H404.668ZM412.267 100.84C413.1 100.84 413.769 101.145 414.272 101.754C414.78 102.363 415.034 103.269 415.034 104.471C415.034 105.266 414.916 105.937 414.679 106.483C414.446 107.025 414.118 107.435 413.695 107.714C413.276 107.989 412.787 108.127 412.229 108.127C411.873 108.127 411.564 108.08 411.302 107.987C411.039 107.894 410.815 107.774 410.629 107.625C410.443 107.473 410.286 107.308 410.159 107.13H410.07C410.091 107.3 410.111 107.488 410.127 107.695C410.149 107.898 410.159 108.085 410.159 108.254V111.117H408.661V100.973H409.88L410.089 101.944H410.159C410.29 101.745 410.449 101.561 410.635 101.392C410.826 101.223 411.054 101.09 411.321 100.992C411.592 100.891 411.907 100.84 412.267 100.84ZM411.867 102.059C411.456 102.059 411.126 102.141 410.876 102.306C410.631 102.467 410.451 102.71 410.337 103.036C410.227 103.362 410.168 103.77 410.159 104.261V104.471C410.159 104.991 410.212 105.433 410.318 105.797C410.428 106.157 410.608 106.432 410.857 106.623C411.111 106.809 411.454 106.902 411.886 106.902C412.25 106.902 412.55 106.802 412.787 106.604C413.028 106.405 413.208 106.121 413.327 105.753C413.445 105.385 413.504 104.951 413.504 104.452C413.504 103.694 413.369 103.106 413.098 102.687C412.832 102.268 412.421 102.059 411.867 102.059ZM420.322 100.84C420.44 100.84 420.569 100.846 420.709 100.859C420.849 100.872 420.969 100.889 421.071 100.91L420.931 102.306C420.842 102.281 420.732 102.262 420.601 102.249C420.474 102.236 420.36 102.23 420.258 102.23C419.992 102.23 419.738 102.274 419.497 102.363C419.255 102.448 419.042 102.579 418.855 102.757C418.669 102.93 418.523 103.148 418.417 103.411C418.312 103.673 418.259 103.978 418.259 104.325V108H416.761V100.973H417.929L418.132 102.211H418.202C418.341 101.961 418.515 101.733 418.722 101.525C418.93 101.318 419.167 101.153 419.433 101.03C419.704 100.903 420 100.84 420.322 100.84ZM423.864 100.973V108H422.372V100.973H423.864ZM423.127 98.2817C423.356 98.2817 423.553 98.3431 423.718 98.4658C423.887 98.5885 423.972 98.8001 423.972 99.1006C423.972 99.3968 423.887 99.6084 423.718 99.7354C423.553 99.8581 423.356 99.9194 423.127 99.9194C422.89 99.9194 422.689 99.8581 422.524 99.7354C422.364 99.6084 422.283 99.3968 422.283 99.1006C422.283 98.8001 422.364 98.5885 422.524 98.4658C422.689 98.3431 422.89 98.2817 423.127 98.2817ZM427.501 108H426.003V98.123H427.501V108ZM431.138 106.489L431.227 106.635C431.151 106.94 431.054 107.268 430.935 107.619C430.817 107.97 430.688 108.322 430.548 108.673C430.408 109.028 430.266 109.363 430.123 109.676H429.031C429.12 109.333 429.204 108.973 429.285 108.597C429.369 108.224 429.445 107.856 429.513 107.492C429.585 107.124 429.642 106.79 429.685 106.489H431.138ZM442.354 108H436.07V106.876L438.476 104.439C438.942 103.965 439.325 103.557 439.625 103.214C439.925 102.867 440.148 102.539 440.292 102.23C440.44 101.921 440.514 101.585 440.514 101.221C440.514 100.772 440.385 100.434 440.126 100.205C439.868 99.9723 439.528 99.856 439.104 99.856C438.702 99.856 438.33 99.9364 437.987 100.097C437.649 100.254 437.298 100.478 436.934 100.77L436.115 99.7861C436.373 99.5661 436.648 99.3651 436.94 99.1831C437.236 99.0011 437.566 98.8573 437.93 98.7515C438.294 98.6414 438.709 98.5864 439.174 98.5864C439.763 98.5864 440.27 98.6922 440.698 98.9038C441.125 99.1112 441.453 99.401 441.682 99.7734C441.914 100.146 442.031 100.58 442.031 101.075C442.031 101.574 441.931 102.035 441.732 102.458C441.534 102.882 441.25 103.301 440.882 103.715C440.514 104.126 440.076 104.572 439.568 105.055L437.962 106.623V106.692H442.354V108ZM449.794 103.354C449.794 104.103 449.735 104.773 449.616 105.366C449.502 105.954 449.32 106.453 449.07 106.864C448.821 107.274 448.495 107.587 448.093 107.803C447.691 108.019 447.204 108.127 446.633 108.127C445.918 108.127 445.327 107.939 444.862 107.562C444.396 107.181 444.051 106.635 443.827 105.924C443.603 105.209 443.491 104.352 443.491 103.354C443.491 102.355 443.592 101.5 443.795 100.789C444.003 100.074 444.337 99.5259 444.798 99.145C445.26 98.7642 445.871 98.5737 446.633 98.5737C447.352 98.5737 447.945 98.7642 448.41 99.145C448.88 99.5216 449.227 100.068 449.451 100.783C449.68 101.494 449.794 102.351 449.794 103.354ZM444.995 103.354C444.995 104.136 445.046 104.79 445.147 105.315C445.253 105.84 445.427 106.233 445.668 106.496C445.909 106.754 446.231 106.883 446.633 106.883C447.035 106.883 447.356 106.754 447.598 106.496C447.839 106.237 448.012 105.846 448.118 105.321C448.228 104.797 448.283 104.141 448.283 103.354C448.283 102.575 448.23 101.923 448.125 101.398C448.019 100.874 447.845 100.48 447.604 100.218C447.363 99.9512 447.039 99.8179 446.633 99.8179C446.227 99.8179 445.903 99.9512 445.662 100.218C445.425 100.48 445.253 100.874 445.147 101.398C445.046 101.923 444.995 102.575 444.995 103.354ZM457.233 108H450.949V106.876L453.355 104.439C453.82 103.965 454.203 103.557 454.504 103.214C454.804 102.867 455.027 102.539 455.17 102.23C455.319 101.921 455.393 101.585 455.393 101.221C455.393 100.772 455.264 100.434 455.005 100.205C454.747 99.9723 454.407 99.856 453.983 99.856C453.581 99.856 453.209 99.9364 452.866 100.097C452.528 100.254 452.176 100.478 451.812 100.77L450.994 99.7861C451.252 99.5661 451.527 99.3651 451.819 99.1831C452.115 99.0011 452.445 98.8573 452.809 98.7515C453.173 98.6414 453.588 98.5864 454.053 98.5864C454.641 98.5864 455.149 98.6922 455.577 98.9038C456.004 99.1112 456.332 99.401 456.561 99.7734C456.793 100.146 456.91 100.58 456.91 101.075C456.91 101.574 456.81 102.035 456.611 102.458C456.412 102.882 456.129 103.301 455.761 103.715C455.393 104.126 454.955 104.572 454.447 105.055L452.841 106.623V106.692H457.233V108ZM464.673 108H458.389V106.876L460.794 104.439C461.26 103.965 461.643 103.557 461.943 103.214C462.244 102.867 462.466 102.539 462.61 102.23C462.758 101.921 462.832 101.585 462.832 101.221C462.832 100.772 462.703 100.434 462.445 100.205C462.187 99.9723 461.846 99.856 461.423 99.856C461.021 99.856 460.648 99.9364 460.306 100.097C459.967 100.254 459.616 100.478 459.252 100.77L458.433 99.7861C458.691 99.5661 458.966 99.3651 459.258 99.1831C459.555 99.0011 459.885 98.8573 460.249 98.7515C460.612 98.6414 461.027 98.5864 461.493 98.5864C462.081 98.5864 462.589 98.6922 463.016 98.9038C463.444 99.1112 463.771 99.401 464 99.7734C464.233 100.146 464.349 100.58 464.349 101.075C464.349 101.574 464.25 102.035 464.051 102.458C463.852 102.882 463.568 103.301 463.2 103.715C462.832 104.126 462.394 104.572 461.886 105.055L460.28 106.623V106.692H464.673V108Z" fill="#5B5B98"/>
<defs>
<filter id="filter0_d_77_368" x="350" y="61" width="180" height="180" filterUnits="userSpaceOnUse" color-interpolation-filters="sRGB">
<feFlood flood-opacity="0" result="BackgroundImageFix"/>
<feColorMatrix in="SourceAlpha" type="matrix" values="0 0 0 0 0 0 0 0 0 0 0 0 0 0 0 0 0 0 127 0" result="hardAlpha"/>
<feOffset dy="10"/>
<feGaussianBlur stdDeviation="17.5"/>
<feColorMatrix type="matrix" values="0 0 0 0 0.196078 0 0 0 0 0.431372 0 0 0 0 0.741176 0 0 0 0.2 0"/>
<feBlend mode="normal" in2="BackgroundImageFix" result="effect1_dropShadow_77_368"/>
<feBlend mode="normal" in="SourceGraphic" in2="effect1_dropShadow_77_368" result="shape"/>
</filter>
</defs>
</svg>
