<svg width="124" height="125" viewBox="0 0 124 125" fill="none" xmlns="http://www.w3.org/2000/svg">
<path d="M93 41.6514H98.1667C103.648 41.6514 108.904 43.8287 112.78 47.7045C116.656 51.5802 118.833 56.8369 118.833 62.318C118.833 67.7992 116.656 73.0558 112.78 76.9316C108.904 80.8073 103.648 82.9847 98.1667 82.9847H93" stroke="#757FEF" stroke-width="2" stroke-linecap="round" stroke-linejoin="round"/>
<path d="M10.3359 41.6514H93.0026V88.1514C93.0026 93.6325 90.8252 98.8892 86.9495 102.765C83.0737 106.641 77.8171 108.818 72.3359 108.818H31.0026C25.5215 108.818 20.2648 106.641 16.3891 102.765C12.5133 98.8892 10.3359 93.6325 10.3359 88.1514V41.6514Z" stroke="#757FEF" stroke-width="2" stroke-linecap="round" stroke-linejoin="round"/>
<path d="M72.3359 5.48535V20.9854" stroke="#757FEF" stroke-width="2" stroke-linecap="round" stroke-linejoin="round"/>
<path d="M51.6641 5.48535V20.9854" stroke="#757FEF" stroke-width="2" stroke-linecap="round" stroke-linejoin="round"/>
<path d="M31 5.48535V20.9854" stroke="#757FEF" stroke-width="2" stroke-linecap="round" stroke-linejoin="round"/>
</svg>
