<svg width="20" height="20" viewBox="0 0 20 20" fill="none" xmlns="http://www.w3.org/2000/svg">
<mask id="mask0_1295_16649" style="mask-type:luminance" maskUnits="userSpaceOnUse" x="0" y="0" width="20" height="20">
<path fill-rule="evenodd" clip-rule="evenodd" d="M19.7674 8.18182H10.2326V12.0455H15.7209C15.2093 14.5 13.0698 15.9091 10.2326 15.9091C6.88372 15.9091 4.18605 13.2727 4.18605 10C4.18605 6.72727 6.88372 4.09091 10.2326 4.09091C11.6744 4.09091 12.9767 4.59091 14 5.40909L16.9767 2.5C15.1628 0.954545 12.8372 0 10.2326 0C4.55814 0 0 4.45455 0 10C0 15.5455 4.55814 20 10.2326 20C15.3488 20 20 16.3636 20 10C20 9.40909 19.907 8.77273 19.7674 8.18182Z" fill="white"/>
</mask>
<g mask="url(#mask0_1295_16649)">
<path d="M-0.929688 15.909V4.09082L6.97729 9.99991L-0.929688 15.909Z" fill="#FBBC05"/>
</g>
<mask id="mask1_1295_16649" style="mask-type:luminance" maskUnits="userSpaceOnUse" x="0" y="0" width="20" height="20">
<path fill-rule="evenodd" clip-rule="evenodd" d="M19.7674 8.18182H10.2326V12.0455H15.7209C15.2093 14.5 13.0698 15.9091 10.2326 15.9091C6.88372 15.9091 4.18605 13.2727 4.18605 10C4.18605 6.72727 6.88372 4.09091 10.2326 4.09091C11.6744 4.09091 12.9767 4.59091 14 5.40909L16.9767 2.5C15.1628 0.954545 12.8372 0 10.2326 0C4.55814 0 0 4.45455 0 10C0 15.5455 4.55814 20 10.2326 20C15.3488 20 20 16.3636 20 10C20 9.40909 19.907 8.77273 19.7674 8.18182Z" fill="white"/>
</mask>
<g mask="url(#mask1_1295_16649)">
<path d="M-0.929688 4.09082L6.97729 9.99991L10.2331 7.22718L21.3959 5.45446V-0.90918H-0.929688V4.09082Z" fill="#EA4335"/>
</g>
<mask id="mask2_1295_16649" style="mask-type:luminance" maskUnits="userSpaceOnUse" x="0" y="0" width="20" height="20">
<path fill-rule="evenodd" clip-rule="evenodd" d="M19.7674 8.18182H10.2326V12.0455H15.7209C15.2093 14.5 13.0698 15.9091 10.2326 15.9091C6.88372 15.9091 4.18605 13.2727 4.18605 10C4.18605 6.72727 6.88372 4.09091 10.2326 4.09091C11.6744 4.09091 12.9767 4.59091 14 5.40909L16.9767 2.5C15.1628 0.954545 12.8372 0 10.2326 0C4.55814 0 0 4.45455 0 10C0 15.5455 4.55814 20 10.2326 20C15.3488 20 20 16.3636 20 10C20 9.40909 19.907 8.77273 19.7674 8.18182Z" fill="white"/>
</mask>
<g mask="url(#mask2_1295_16649)">
<path d="M-0.929688 15.909L13.0238 5.45446L16.6982 5.909L21.3959 -0.90918V20.909H-0.929688V15.909Z" fill="#34A853"/>
</g>
<mask id="mask3_1295_16649" style="mask-type:luminance" maskUnits="userSpaceOnUse" x="0" y="0" width="20" height="20">
<path fill-rule="evenodd" clip-rule="evenodd" d="M19.7674 8.18182H10.2326V12.0455H15.7209C15.2093 14.5 13.0698 15.9091 10.2326 15.9091C6.88372 15.9091 4.18605 13.2727 4.18605 10C4.18605 6.72727 6.88372 4.09091 10.2326 4.09091C11.6744 4.09091 12.9767 4.59091 14 5.40909L16.9767 2.5C15.1628 0.954545 12.8372 0 10.2326 0C4.55814 0 0 4.45455 0 10C0 15.5455 4.55814 20 10.2326 20C15.3488 20 20 16.3636 20 10C20 9.40909 19.907 8.77273 19.7674 8.18182Z" fill="white"/>
</mask>
<g mask="url(#mask3_1295_16649)">
<path d="M21.3963 20.909L6.97765 9.99991L5.11719 8.63627L21.3963 4.09082V20.909Z" fill="#4285F4"/>
</g>
</svg>
